<?xml version="1.0" encoding="iso-8859-1"?>
<!-- Generator: Adobe Illustrator 18.0.0, SVG Export Plug-In . SVG Version: 6.00 Build 0)  -->
<!DOCTYPE svg PUBLIC "-//W3C//DTD SVG 1.1//EN" "http://www.w3.org/Graphics/SVG/1.1/DTD/svg11.dtd">
<svg version="1.1" id="Capa_1" xmlns="http://www.w3.org/2000/svg" xmlns:xlink="http://www.w3.org/1999/xlink" x="0px" y="0px"
	 viewBox="0 0 495.779 495.779" style="enable-background:new 0 0 495.779 495.779;" xml:space="preserve">
<g>
	<path d="M104.546,244.476l-53.277,11.951c-26.723,6.002-46.915,27.989-50.65,55.131c-3.742,27.13,9.752,53.74,33.859,66.752
		c27.677,14.944,48.759,26.829,51.939,30.009c3.177,3.181,15.074,24.269,30.01,51.947c13.02,24.108,39.629,37.627,66.777,33.885
		c27.149-3.742,49.112-23.954,55.109-50.687l11.943-53.259c9.149-40.77-3.228-83.393-32.779-112.947
		C187.931,247.715,145.309,235.338,104.546,244.476z"/>
	<path d="M271.636,114.101c-21.915-12.777-53.989,1.418-71.655,31.714c-17.666,30.271-14.242,65.188,7.654,77.961
		c21.894,12.777,53.963-1.418,71.641-31.696C296.941,161.784,293.525,126.875,271.636,114.101z"/>
	<path d="M281.343,97.438c8.895,5.193,20.333,2.192,25.511-6.71c5.201-8.888,20.244-51.264,11.342-56.443
		c-8.903-5.193-38.377,28.747-43.57,37.642C269.444,80.83,272.433,92.245,281.343,97.438z"/>
	<path d="M90.2,209.794c24.097,7.852,52.428-12.8,63.296-46.152c10.867-33.326,0.128-66.744-23.961-74.57
		c-24.1-7.861-52.469,12.807-63.322,46.144C55.353,168.542,66.092,201.96,90.2,209.794z"/>
	<path d="M135.495,70.73c9.799,3.195,20.34-2.171,23.513-11.97c3.195-9.776,8.943-54.371-0.866-57.565
		c-9.792-3.195-31.42,36.231-34.598,46.016C120.356,57.016,125.696,67.542,135.495,70.73z"/>
	<path d="M350.974,296.815c30.304-17.673,44.499-49.747,31.732-71.651c-12.785-21.89-47.693-25.316-77.979-7.631
		c-30.289,17.666-44.48,49.747-31.699,71.636C285.806,311.065,320.715,314.481,350.974,296.815z"/>
	<path d="M462.518,178.594c-5.193-8.892-47.562,6.148-56.445,11.341c-8.903,5.186-11.904,16.615-6.711,25.518
		c5.194,8.91,16.605,11.896,25.507,6.717C433.765,216.978,467.712,187.497,462.518,178.594z"/>
	<path d="M333.146,343.294c-33.352,10.868-54.003,39.208-46.144,63.315c7.841,24.097,41.245,34.828,74.571,23.976
		c33.345-10.86,54.011-39.214,46.151-63.322C399.899,343.173,366.491,332.426,333.146,343.294z"/>
	<path d="M495.595,338.655c-3.187-9.817-47.774-4.069-57.565-0.862c-9.792,3.169-15.154,13.702-11.952,23.52
		c3.181,9.799,13.703,15.132,23.501,11.951C459.382,370.068,498.798,348.454,495.595,338.655z"/>
</g>
<g>
</g>
<g>
</g>
<g>
</g>
<g>
</g>
<g>
</g>
<g>
</g>
<g>
</g>
<g>
</g>
<g>
</g>
<g>
</g>
<g>
</g>
<g>
</g>
<g>
</g>
<g>
</g>
<g>
</g>
</svg>
