<?xml version="1.0" encoding="utf-8"?>
<!-- Svg Vector Icons : http://www.onlinewebfonts.com/icon -->
<!DOCTYPE svg PUBLIC "-//W3C//DTD SVG 1.1//EN" "http://www.w3.org/Graphics/SVG/1.1/DTD/svg11.dtd">
<svg version="1.1" xmlns="http://www.w3.org/2000/svg" xmlns:xlink="http://www.w3.org/1999/xlink" x="0px" y="0px" viewBox="0 0 1000 1000" enable-background="new 0 0 1000 1000" xml:space="preserve">
<metadata> Svg Vector Icons : http://www.onlinewebfonts.com/icon </metadata>
<g><path d="M780.5,88.5c11.2,0,22.4,3.7,29.9,11.2l86,86c15,15,15,41.1,0,56.1L638.4,500l258.1,258.1c15,15,15,41.1,0,56.1l-86,86c-7.5,7.5-18.7,11.2-29.9,11.2c-11.2,0-22.4-3.7-29.9-11.2L496.3,642.1L238.2,900.2c-7.5,7.5-18.7,11.2-26.2,11.2c-11.2,0-22.4-3.7-29.9-11.2l-86-86c-15-15-15-41.1,0-56.1L354.1,500L96,241.9c-15-15-15-41.1,0-56.1l86-86c7.5-7.5,18.7-11.2,29.9-11.2c11.2,0,22.4,3.7,29.9,11.2L500,357.9L758.1,99.8C761.8,92.3,773.1,88.5,780.5,88.5 M780.5,13.7c-29.9,0-59.8,11.2-82.3,33.7l-202,205.7L290.5,47.4C271.8,25,241.9,13.7,212,13.7c-33.7,0-59.8,11.2-82.3,33.7l-86,86c-44.9,44.9-44.9,119.7,0,164.6l205.7,202L43.7,705.7C21.2,724.4,10,754.3,10,784.3c0,29.9,11.2,59.8,33.7,82.3l86,86c22.4,22.4,48.6,33.7,82.3,33.7c29.9,0,59.8-11.2,82.3-33.7L500,746.9l205.7,205.7c22.4,22.4,52.4,33.7,82.3,33.7s59.8-11.2,82.3-33.7l86-86c22.4-22.4,33.7-52.4,33.7-82.3c0-29.9-11.2-59.8-33.7-82.3L743.1,500l205.7-205.7c44.9-44.9,44.9-119.7,0-164.6l-86-86C840.4,25,814.2,13.7,780.5,13.7L780.5,13.7z"/></g>
</svg>