<?xml version="1.0" encoding="UTF-8" standalone="no"?>
<!-- Created with Inkscape (http://www.inkscape.org/) -->

<svg
   xmlns:dc="http://purl.org/dc/elements/1.1/"
   xmlns:cc="http://creativecommons.org/ns#"
   xmlns:rdf="http://www.w3.org/1999/02/22-rdf-syntax-ns#"
   xmlns:svg="http://www.w3.org/2000/svg"
   xmlns="http://www.w3.org/2000/svg"
   xmlns:sodipodi="http://sodipodi.sourceforge.net/DTD/sodipodi-0.dtd"
   xmlns:inkscape="http://www.inkscape.org/namespaces/inkscape"
   version="1.1"
   id="svg2"
   width="31"
   height="37.16346"
   viewBox="0 0 31 37.16346"
   sodipodi:docname="basket.svg"
   inkscape:version="0.92.1 r15371">
  <metadata
     id="metadata8">
    <rdf:RDF>
      <cc:Work
         rdf:about="">
        <dc:format>image/svg+xml</dc:format>
        <dc:type
           rdf:resource="http://purl.org/dc/dcmitype/StillImage" />
        <dc:title></dc:title>
      </cc:Work>
    </rdf:RDF>
  </metadata>
  <defs
     id="defs6" />
  <sodipodi:namedview
     pagecolor="#ffffff"
     bordercolor="#666666"
     borderopacity="1"
     objecttolerance="10"
     gridtolerance="10"
     guidetolerance="10"
     inkscape:pageopacity="0.44705882"
     inkscape:pageshadow="2"
     inkscape:window-width="1366"
     inkscape:window-height="705"
     id="namedview4"
     showgrid="false"
     inkscape:pagecheckerboard="true"
     inkscape:snap-to-guides="true"
     inkscape:snap-grids="false"
     inkscape:zoom="5.6190476"
     inkscape:cx="12.275424"
     inkscape:cy="43.694915"
     inkscape:window-x="-8"
     inkscape:window-y="-8"
     inkscape:window-maximized="1"
     inkscape:current-layer="svg2"
     fit-margin-top="0"
     fit-margin-left="0"
     fit-margin-right="0"
     fit-margin-bottom="0" />
  <g
     transform="translate(-2,-0.83653846)"
     id="g242"
     onclick=",n*mk">
    <path
       style="display:none;fill:#f5f2ec;fill-opacity:1"
       d="M 0,0.5 V 0 H 0.5 1 1.5 2 2.5 3 3.5 4 4.5 5 5.5 6 6.5 7 7.5 8 8.5 9 9.5 10 10.5 11 11.5 12 12.5 13 13.5 14 14.5 15 15.5 16 16.5 17 17.5 18 18.5 19 19.5 20 20.5 21 21.5 22 22.5 23 23.5 24 24.5 25 25.5 26 26.5 27 27.5 28 28.5 29 29.5 30 30.5 31 31.5 32 32.5 33 V 0.5 1 1.5 2 2.5 3 3.5 4 4.5 5 5.5 6 6.5 7 7.5 8 8.5 9 9.5 10 10.5 11 11.5 12 12.5 13 13.5 14 14.5 15 15.5 16 16.5 17 17.5 18 18.5 19 19.5 20 20.5 21 21.5 22 22.5 23 23.5 24 24.5 25 H 32.5 32 V 24.5 Q 32,24 31.875,23.625 31.75,23.25 31.5,23 31.25,22.75 31,22.5 30.75,22.25 30.5,22 30.25,21.75 30,21.5 29.75,21.25 29.375,21.125 29,21 28.5,21 H 28 L 27.875,20.625 Q 27.75,20.25 27.375,20.125 27,20 26.5,20 26,20 25.5,20 H 25 L 24.4375,19.9375 23.875,19.875 23.8125,19.9375 23.75,20 23.875,19.875 Q 24,19.75 24,19.5 V 19.25 19.625 20 19.5 q 0,-0.5 0,-1 0,-0.5 0,-1 0,-0.5 0,-1 0,-0.5 0,-1 0,-0.5 0,-1 0,-0.5 0,-1 0,-0.5 0,-1 0,-0.5 0,-1 0,-0.5 0,-1 0,-0.5 0,-1 Q 24,9 24,8.5 24,8 23.875,7.625 23.75,7.25 23.375,7.125 23,7 22.5,7 22,7 21.5,7 21,7 20.5,7 20,7 19.625,6.875 19.25,6.75 19.125,6.375 L 19,6 V 5.5 Q 19,5 18.875,4.625 L 18.75,4.25 18.84375,4.53125 18.9375,4.8125 18.875,4.625 Q 18.8125,4.4375 18.6875,4.3125 L 18.5625,4.1875 18.625,4.25 18.6875,4.3125 18.96875,4.03125 Q 19.25,3.75 19.125,3.375 19,3 18.625,2.875 18.25,2.75 18.125,2.375 18,2 17.625,1.875 17.25,1.75 17.125,1.375 17,1 16.625,0.875 16.25,0.75 15.96875,1.03125 L 15.6875,1.3125 15.75,1.375 15.8125,1.4375 15.6875,1.3125 Q 15.5625,1.1875 15.375,1.125 L 15.1875,1.0625 15.46875,1.15625 15.75,1.25 15.375,1.125 Q 15,1 14.5,1 H 14 13.5 Q 13,1 12.5,1 H 12 11.5 Q 11,1 10.625,1.125 L 10.25,1.25 10.53125,1.15625 10.8125,1.0625 10.625,1.125 Q 10.4375,1.1875 10.3125,1.3125 L 10.1875,1.4375 10.25,1.375 10.3125,1.3125 10.03125,1.03125 Q 9.75,0.75 9.375,0.875 9,1 8.875,1.375 8.75,1.75 8.375,1.875 8,2 7.875,2.375 7.75,2.75 7.375,2.875 7,3 6.875,3.375 6.75,3.75 7.03125,4.03125 L 7.3125,4.3125 7.375,4.25 7.4375,4.1875 7.3125,4.3125 Q 7.1875,4.4375 7.125,4.625 L 7.0625,4.8125 7.15625,4.53125 7.25,4.25 7.125,4.625 Q 7,5 7,5.5 V 6 L 6.875,6.375 Q 6.75,6.75 6.375,6.875 6,7 5.5,7 5,7 4.5,7 4,7 3.5,7 3,7 2.625,7.125 2.25,7.25 2.125,7.625 2,8 2,8.5 q 0,0.5 0,1 0,0.5 0,1 0,0.5 0,1 0,0.5 0,1 0,0.5 0,1 0,0.5 0,1 0,0.5 0,1 0,0.5 0,1 0,0.5 0,1 0,0.5 0,1 0,0.5 0,1 0,0.5 0,1 0,0.5 0,1 0,0.5 0,1 0,0.5 0,1 0,0.5 0,1 0,0.5 0,1 0,0.5 0,1 0,0.5 0,1 0,0.5 0.125,0.875 0.125,0.375 0.5,0.5 Q 3,29 3.5,29 q 0.5,0 1,0 0.5,0 1,0 0.5,0 1,0 0.5,0 1,0 0.5,0 1,0 0.5,0 1,0 0.5,0 1,0 0.5,0 1,0 0.5,0 1,0 0.5,0 1,0 0.5,0 1,0 H 15 14.625 14.25 14.5 q 0.25,0 0.375,-0.125 L 15,28.75 14.9375,28.8125 14.875,28.875 14.9375,29.4375 15,30 v 0.5 q 0,0.5 0,1 0,0.5 0.125,0.875 0.125,0.375 0.5,0.5 L 16,33 v 0.5 q 0,0.5 0.125,0.875 0.125,0.375 0.375,0.625 0.25,0.25 0.5,0.5 0.25,0.25 0.5,0.5 0.25,0.25 0.5,0.5 0.25,0.25 0.625,0.375 Q 19,37 19.5,37 H 20 l 0.125,0.375 q 0.125,0.375 0.5,0.5 Q 21,38 21.5,38 q 0.5,0 1,0 h 0.5 0.5 q 0.5,0 1,0 h 0.5 0.5 q 0.5,0 1,0 0.5,0 0.875,-0.125 0.375,-0.125 0.5,-0.5 L 28,37 h 0.5 Q 29,37 29.375,36.875 29.75,36.75 30,36.5 30.25,36.25 30.5,36 30.75,35.75 31,35.5 31.25,35.25 31.5,35 31.75,34.75 31.875,34.375 32,34 32,33.5 V 33 H 32.5 33 V 33.5 34 34.5 35 35.5 36 36.5 37 37.5 38 38.5 39 39.5 40 40.5 41 41.5 42 H 32.5 32 31.5 31 30.5 30 29.5 29 28.5 28 27.5 27 26.5 26 25.5 25 24.5 24 23.5 23 22.5 22 21.5 21 20.5 20 19.5 19 18.5 18 17.5 17 16.5 16 15.5 15 14.5 14 13.5 13 12.5 12 11.5 11 10.5 10 9.5 9 8.5 8 7.5 7 6.5 6 5.5 5 4.5 4 3.5 3 2.5 2 1.5 1 0.5 0 V 41.5 41 40.5 40 39.5 39 38.5 38 37.5 37 36.5 36 35.5 35 34.5 34 33.5 33 32.5 32 31.5 31 30.5 30 29.5 29 28.5 28 27.5 27 26.5 26 25.5 25 24.5 24 23.5 23 22.5 22 21.5 21 20.5 20 19.5 19 18.5 18 17.5 17 16.5 16 15.5 15 14.5 14 13.5 13 12.5 12 11.5 11 10.5 10 9.5 9 8.5 8 7.5 7 6.5 6 5.5 5 4.5 4 3.5 3 2.5 2 1.5 1 0.5"
       id="path36"
       inkscape:connector-curvature="0" />
    <path
       style="fill:#f4f1eb;fill-opacity:1"
       d="M 8.875,1.375 Q 9,1 9.375,0.875 9.75,0.75 10.03125,1.03125 L 10.3125,1.3125 10.375,1.25 10.4375,1.1875 10.3125,1.3125 Q 10.1875,1.4375 10.125,1.625 L 10.0625,1.8125 10.15625,1.53125 10.25,1.25 10.125,1.625 10,2 9.625,2.125 9.25,2.25 9.53125,2.15625 9.8125,2.0625 9.625,2.125 Q 9.4375,2.1875 9.28125,2.28125 L 9.125,2.375 9.203125,2.328125 9.28125,2.28125 8.984375,1.984375 8.6875,1.6875 8.625,1.75 8.5625,1.8125 8.6875,1.6875 Q 8.8125,1.5625 8.875,1.375 L 8.9375,1.1875 8.84375,1.46875 8.75,1.75 8.875,1.375"
       id="path38"
       inkscape:connector-curvature="0" />
    <path
       style="fill:#94938f;fill-opacity:1"
       d="m 10.125,1.625 q 0.125,-0.375 0.5,-0.5 L 11,1 10.71875,1.09375 10.4375,1.1875 10.625,1.125 Q 10.8125,1.0625 11.03125,1.03125 L 11.25,1 11.140625,1.015625 11.03125,1.03125 11,1.5 10.96875,1.96875 11.078125,1.953125 11.1875,1.9375 10.96875,1.96875 Q 10.75,2 10.5,2 H 10.25 10.625 11 10.5 10 l 0.125,-0.375"
       id="path40"
       inkscape:connector-curvature="0" />
    <path
       style="fill:#343432;fill-opacity:1"
       d="M 11,1.5 11.03125,1.03125 10.921875,1.046875 10.8125,1.0625 11.03125,1.03125 Q 11.25,1 11.5,1 H 11.75 11.375 11 11.5 12 l -0.125,0.375 q -0.125,0.375 -0.5,0.5 L 11,2 11.28125,1.90625 11.5625,1.8125 11.375,1.875 Q 11.1875,1.9375 10.96875,1.96875 L 10.75,2 10.859375,1.984375 10.96875,1.96875 11,1.5"
       id="path42"
       inkscape:connector-curvature="0" />
    <path
       style="fill:#0b0b0b;fill-opacity:1"
       d="M 11.875,1.375 12,1 h 0.5 q 0.5,0 1,0 H 14 L 14.125,1.375 14.25,1.75 14.15625,1.46875 14.0625,1.1875 14.125,1.375 q 0.0625,0.1875 0.1875,0.3125 l 0.125,0.125 L 14.375,1.75 14.3125,1.6875 14.03125,1.96875 Q 13.75,2.25 13.375,2.125 13,2 12.625,2.125 12.25,2.25 11.96875,1.96875 L 11.6875,1.6875 11.625,1.75 11.5625,1.8125 11.6875,1.6875 Q 11.8125,1.5625 11.875,1.375 L 11.9375,1.1875 11.84375,1.46875 11.75,1.75 11.875,1.375"
       id="path44"
       inkscape:connector-curvature="0" />
    <path
       style="fill:#343432;fill-opacity:1"
       d="M 14.125,1.375 14,1 H 14.5 15 14.625 14.25 14.5 q 0.25,0 0.46875,0.03125 L 15.1875,1.0625 15.078125,1.046875 14.96875,1.03125 15,1.5 15.03125,1.96875 15.140625,1.984375 15.25,2 15.03125,1.96875 Q 14.8125,1.9375 14.625,1.875 L 14.4375,1.8125 14.71875,1.90625 15,2 14.625,1.875 q -0.375,-0.125 -0.5,-0.5"
       id="path46"
       inkscape:connector-curvature="0" />
    <path
       style="fill:#94938f;fill-opacity:1"
       d="M 15,1.5 14.96875,1.03125 14.859375,1.015625 14.75,1 14.96875,1.03125 Q 15.1875,1.0625 15.375,1.125 L 15.5625,1.1875 15.28125,1.09375 15,1 15.375,1.125 q 0.375,0.125 0.5,0.5 L 16,2 H 15.5 15 15.375 15.75 15.5 Q 15.25,2 15.03125,1.96875 L 14.8125,1.9375 14.921875,1.953125 15.03125,1.96875 15,1.5"
       id="path48"
       inkscape:connector-curvature="0" />
    <path
       style="fill:#f4f1eb;fill-opacity:1"
       d="M 15.875,1.625 15.75,1.25 15.84375,1.53125 15.9375,1.8125 15.875,1.625 Q 15.8125,1.4375 15.6875,1.3125 L 15.5625,1.1875 15.625,1.25 15.6875,1.3125 15.96875,1.03125 Q 16.25,0.75 16.625,0.875 17,1 17.125,1.375 L 17.25,1.75 17.15625,1.46875 17.0625,1.1875 17.125,1.375 q 0.0625,0.1875 0.1875,0.3125 l 0.125,0.125 L 17.375,1.75 17.3125,1.6875 17.015625,1.984375 16.71875,2.28125 16.796875,2.328125 16.875,2.375 16.71875,2.28125 Q 16.5625,2.1875 16.375,2.125 L 16.1875,2.0625 16.46875,2.15625 16.75,2.25 16.375,2.125 16,2 15.875,1.625"
       id="path50"
       inkscape:connector-curvature="0" />
    <path
       style="fill:#dddbd5;fill-opacity:1"
       d="M 7.875,2.375 Q 8,2 8.375,1.875 L 8.75,1.75 8.46875,1.84375 8.1875,1.9375 8.375,1.875 Q 8.5625,1.8125 8.6875,1.6875 L 8.8125,1.5625 8.75,1.625 8.6875,1.6875 8.984375,1.984375 9.28125,2.28125 9.359375,2.234375 9.4375,2.1875 9.28125,2.28125 Q 9.125,2.375 9,2.5 L 8.875,2.625 9.0625,2.4375 9.25,2.25 9,2.5 Q 8.75,2.75 8.5,3 L 8.25,3.25 8.4375,3.0625 8.625,2.875 8.5,3 Q 8.375,3.125 8.28125,3.28125 L 8.1875,3.4375 8.234375,3.359375 8.28125,3.28125 7.984375,2.984375 7.6875,2.6875 7.625,2.75 7.5625,2.8125 7.6875,2.6875 Q 7.8125,2.5625 7.875,2.375 L 7.9375,2.1875 7.84375,2.46875 7.75,2.75 7.875,2.375"
       id="path52"
       inkscape:connector-curvature="0" />
    <path
       style="fill:#41403e;fill-opacity:1"
       d="M 9,2.5 Q 9.25,2.25 9.625,2.125 L 10,2 9.875,2.375 Q 9.75,2.75 9.5,3 9.25,3.25 9,3.5 8.75,3.75 8.375,3.875 L 8,4 8.125,3.625 Q 8.25,3.25 8.5,3 8.75,2.75 9,2.5"
       id="path54"
       inkscape:connector-curvature="0" />
    <path
       style="fill:#000000;fill-opacity:1"
       d="M 9.875,2.375 10,2 h 0.5 Q 11,2 11.375,1.875 L 11.75,1.75 11.46875,1.84375 11.1875,1.9375 11.375,1.875 Q 11.5625,1.8125 11.6875,1.6875 L 11.8125,1.5625 11.75,1.625 11.6875,1.6875 11.96875,1.96875 Q 12.25,2.25 12.625,2.125 13,2 13.375,2.125 13.75,2.25 14.03125,1.96875 L 14.3125,1.6875 14.25,1.625 14.1875,1.5625 l 0.125,0.125 q 0.125,0.125 0.3125,0.1875 L 14.8125,1.9375 14.53125,1.84375 14.25,1.75 14.625,1.875 Q 15,2 15.5,2 H 16 l 0.125,0.375 Q 16.25,2.75 16.5,3 16.75,3.25 17,3.5 17.25,3.75 17.625,3.875 L 18,4 V 4.5 Q 18,5 18.125,5.375 L 18.25,5.75 18.15625,5.46875 18.0625,5.1875 18.125,5.375 q 0.0625,0.1875 0.1875,0.3125 l 0.125,0.125 L 18.375,5.75 18.3125,5.6875 18.03125,5.96875 Q 17.75,6.25 17.875,6.625 18,7 18.375,7.125 18.75,7.25 19.03125,6.96875 L 19.3125,6.6875 19.25,6.625 19.1875,6.5625 l 0.125,0.125 q 0.125,0.125 0.3125,0.1875 L 19.8125,6.9375 19.53125,6.84375 19.25,6.75 19.625,6.875 Q 20,7 20.5,7 q 0.5,0 1,0 0.5,0 1,0 H 23 22.625 22.25 22.5 q 0.25,0 0.46875,0.03125 L 23.1875,7.0625 23.078125,7.046875 22.96875,7.03125 23.109375,7.390625 q 0.140625,0.359375 0.5,0.5 L 23.96875,8.03125 23.953125,7.921875 23.9375,7.8125 23.96875,8.03125 Q 24,8.25 24,8.5 V 8.75 8.375 8 8.5 q 0,0.5 0,1 0,0.5 0,1 0,0.5 0,1 0,0.5 0,1 0,0.5 0,1 0,0.5 0,1 0,0.5 0,1 0,0.5 0,1 0,0.5 0,1 0,0.5 0,1 0,0.5 0,1 0,0.5 -0.5,0.5 H 23 22.5 22 v -0.5 q 0,-0.5 0,-1 0,-0.5 0,-1 0,-0.5 0,-1 0,-0.5 0,-1 0,-0.5 0,-1 0,-0.5 0,-1 0,-0.5 0,-1 0,-0.5 0,-1 0,-0.5 0,-1 Q 22,10 21.875,9.625 21.75,9.25 21.375,9.125 21,9 20.5,9 20,9 19.625,9.125 19.25,9.25 19.125,9.625 19,10 19,10.5 q 0,0.5 0,1 V 12 11.625 11.25 11.5 q 0,0.25 -0.03125,0.46875 L 18.9375,12.1875 18.95313,12.078125 18.96876,11.96875 18.484385,11.98438 18,12 17.515625,11.984375 17.03125,11.96875 17.046875,12.078125 17.0625,12.1875 17.03125,11.96875 Q 17,11.75 17,11.5 V 11.25 11.625 12 11.5 Q 17,11 17,10.5 17,10 16.875,9.625 16.75,9.25 16.375,9.125 16,9 15.5,9 15,9 14.5,9 14,9 13.5,9 13,9 12.5,9 12,9 11.5,9 11,9 10.5,9 10,9 9.625,9.125 9.25,9.25 9.125,9.625 9,10 9,10.5 9,11 9,11.5 V 12 11.625 11.25 11.5 q 0,0.25 -0.03125,0.46875 L 8.9375,12.1875 8.953125,12.078125 8.96875,11.96875 8.484375,11.984375 8,12 7.515625,11.984375 7.03125,11.96875 7.046875,12.078125 7.0625,12.1875 7.03125,11.96875 Q 7,11.75 7,11.5 V 11.25 11.625 12 11.5 Q 7,11 7,10.5 7,10 6.875,9.625 6.75,9.25 6.375,9.125 6,9 5.5,9 5,9 4.625,9.125 4.25,9.25 4.125,9.625 4,10 4,10.5 q 0,0.5 0,1 0,0.5 0,1 0,0.5 0,1 0,0.5 0,1 0,0.5 0,1 0,0.5 0,1 0,0.5 0,1 0,0.5 0,1 0,0.5 0,1 0,0.5 0,1 0,0.5 0,1 0,0.5 0,1 0,0.5 0,1 0,0.5 0,1 0,0.5 0,1 0,0.5 0.125,0.875 0.125,0.375 0.5,0.5 Q 5,27 5.5,27 q 0.5,0 1,0 0.5,0 1,0 0.5,0 1,0 0.5,0 1,0 0.5,0 1,0 0.5,0 1,0 0.5,0 1,0 0.5,0 1,0 0.5,0 1,0 H 15 v 0.5 0.5 0.5 q 0,0.5 -0.5,0.5 -0.5,0 -1,0 -0.5,0 -1,0 -0.5,0 -1,0 -0.5,0 -1,0 -0.5,0 -1,0 -0.5,0 -1,0 -0.5,0 -1,0 -0.5,0 -1,0 -0.5,0 -1,0 -0.5,0 -1,0 -0.5,0 -1,0 H 3 3.375 3.75 3.5 Q 3.25,29 3.03125,28.96875 L 2.8125,28.9375 2.921875,28.953125 3.03125,28.96875 2.890625,28.609375 Q 2.75,28.25 2.390625,28.109375 L 2.03125,27.96875 2.046875,28.078125 2.0625,28.1875 2.03125,27.96875 Q 2,27.75 2,27.5 V 27.25 27.625 28 27.5 Q 2,27 2,26.5 2,26 2,25.5 2,25 2,24.5 2,24 2,23.5 2,23 2,22.5 2,22 2,21.5 2,21 2,20.5 2,20 2,19.5 2,19 2,18.5 2,18 2,17.5 2,17 2,16.5 2,16 2,15.5 2,15 2,14.5 2,14 2,13.5 2,13 2,12.5 2,12 2,11.5 2,11 2,10.5 2,10 2,9.5 2,9 2,8.5 V 8 8.375 8.75 8.5 Q 2,8.25 2.03125,8.03125 L 2.0625,7.8125 2.046875,7.921875 2.03125,8.03125 2.390625,7.890625 Q 2.75,7.75 2.890625,7.390625 L 3.03125,7.03125 2.921875,7.046875 2.8125,7.0625 3.03125,7.03125 Q 3.25,7 3.5,7 H 3.75 3.375 3 3.5 Q 4,7 4.5,7 5,7 5.5,7 6,7 6.375,6.875 L 6.75,6.75 6.46875,6.84375 6.1875,6.9375 6.375,6.875 Q 6.5625,6.8125 6.6875,6.6875 L 6.8125,6.5625 6.75,6.625 6.6875,6.6875 6.96875,6.96875 Q 7.25,7.25 7.625,7.125 8,7 8.125,6.625 8.25,6.25 7.96875,5.96875 L 7.6875,5.6875 7.625,5.75 7.5625,5.8125 7.6875,5.6875 Q 7.8125,5.5625 7.875,5.375 L 7.9375,5.1875 7.84375,5.46875 7.75,5.75 7.875,5.375 Q 8,5 8,4.5 V 4 L 8.375,3.875 Q 8.75,3.75 9,3.5 9.25,3.25 9.5,3 9.75,2.75 9.875,2.375 M 15.5,7 H 16 L 16.375,6.875 Q 16.75,6.75 16.875,6.375 17,6 16.875,5.625 L 16.75,5.25 16.84375,5.53125 16.9375,5.8125 16.875,5.625 Q 16.8125,5.4375 16.6875,5.3125 L 16.5625,5.1875 16.625,5.25 16.6875,5.3125 16.96875,5.03125 Q 17.25,4.75 17,4.5 16.75,4.25 16.5,4 16.25,3.75 16,3.5 15.75,3.25 15.5,3 15.25,2.75 14.96875,3.03125 L 14.6875,3.3125 14.75,3.375 14.8125,3.4375 14.6875,3.3125 Q 14.5625,3.1875 14.375,3.125 L 14.1875,3.0625 14.46875,3.15625 14.75,3.25 14.375,3.125 Q 14,3 13.5,3 13,3 12.5,3 12,3 11.625,3.125 L 11.25,3.25 11.53125,3.15625 11.8125,3.0625 11.625,3.125 Q 11.4375,3.1875 11.3125,3.3125 L 11.1875,3.4375 11.25,3.375 11.3125,3.3125 11.03125,3.03125 Q 10.75,2.75 10.5,3 10.25,3.25 10,3.5 9.75,3.75 9.5,4 9.25,4.25 9,4.5 8.75,4.75 9.03125,5.03125 L 9.3125,5.3125 9.375,5.25 9.4375,5.1875 9.3125,5.3125 Q 9.1875,5.4375 9.125,5.625 L 9.0625,5.8125 9.15625,5.53125 9.25,5.25 9.125,5.625 Q 9,6 9.125,6.375 9.25,6.75 9.625,6.875 L 10,7 h 0.5 q 0.5,0 1,0 0.5,0 1,0 0.5,0 1,0 0.5,0 1,0 0.5,0 1,0"
       id="path56"
       inkscape:connector-curvature="0" />
    <path
       style="fill:#41403e;fill-opacity:1"
       d="M 16.125,2.375 16,2 16.375,2.125 Q 16.75,2.25 17,2.5 17.25,2.75 17.5,3 17.75,3.25 17.875,3.625 L 18,4 17.625,3.875 Q 17.25,3.75 17,3.5 16.75,3.25 16.5,3 16.25,2.75 16.125,2.375"
       id="path58"
       inkscape:connector-curvature="0" />
    <path
       style="fill:#dddbd5;fill-opacity:1"
       d="M 17,2.5 16.75,2.25 16.9375,2.4375 17.125,2.625 17,2.5 Q 16.875,2.375 16.71875,2.28125 L 16.5625,2.1875 16.640625,2.234375 16.71875,2.28125 17.015625,1.984375 17.3125,1.6875 17.25,1.625 17.1875,1.5625 l 0.125,0.125 q 0.125,0.125 0.3125,0.1875 L 17.8125,1.9375 17.53125,1.84375 17.25,1.75 17.625,1.875 Q 18,2 18.125,2.375 L 18.25,2.75 18.15625,2.46875 18.0625,2.1875 18.125,2.375 q 0.0625,0.1875 0.1875,0.3125 l 0.125,0.125 L 18.375,2.75 18.3125,2.6875 18.015625,2.984375 17.71875,3.28125 17.765625,3.359375 17.8125,3.4375 17.71875,3.28125 Q 17.625,3.125 17.5,3 L 17.375,2.875 17.5625,3.0625 17.75,3.25 17.5,3 Q 17.25,2.75 17,2.5"
       id="path60"
       inkscape:connector-curvature="0" />
    <path
       style="fill:#f4f1eb;fill-opacity:1"
       d="M 6.875,3.375 Q 7,3 7.375,2.875 L 7.75,2.75 7.46875,2.84375 7.1875,2.9375 7.375,2.875 Q 7.5625,2.8125 7.6875,2.6875 L 7.8125,2.5625 7.75,2.625 7.6875,2.6875 7.984375,2.984375 8.28125,3.28125 8.328125,3.203125 8.375,3.125 8.28125,3.28125 Q 8.1875,3.4375 8.125,3.625 L 8.0625,3.8125 8.15625,3.53125 8.25,3.25 8.125,3.625 8,4 7.625,4.125 7.25,4.25 7.53125,4.15625 7.8125,4.0625 7.625,4.125 Q 7.4375,4.1875 7.3125,4.3125 L 7.1875,4.4375 7.25,4.375 7.3125,4.3125 7.03125,4.03125 Q 6.75,3.75 6.875,3.375"
       id="path62"
       inkscape:connector-curvature="0" />
    <path
       style="fill:#191918;fill-opacity:1"
       d="M 10,3.5 Q 10.25,3.25 10.5,3 10.75,2.75 11.03125,3.03125 L 11.3125,3.3125 11.375,3.25 11.4375,3.1875 11.3125,3.3125 Q 11.1875,3.4375 11.125,3.625 L 11.0625,3.8125 11.15625,3.53125 11.25,3.25 11.125,3.625 Q 11,4 10.625,4.125 10.25,4.25 10.125,4.625 10,5 9.625,5.125 L 9.25,5.25 9.53125,5.15625 9.8125,5.0625 9.625,5.125 Q 9.4375,5.1875 9.3125,5.3125 L 9.1875,5.4375 9.25,5.375 9.3125,5.3125 9.03125,5.03125 Q 8.75,4.75 9,4.5 9.25,4.25 9.5,4 9.75,3.75 10,3.5"
       id="path64"
       inkscape:connector-curvature="0" />
    <path
       style="fill:#9e9c98;fill-opacity:1"
       d="m 11.125,3.625 q 0.125,-0.375 0.5,-0.5 L 12,3 11.71875,3.09375 11.4375,3.1875 11.625,3.125 Q 11.8125,3.0625 12.03125,3.03125 L 12.25,3 12.140625,3.015625 12.03125,3.03125 11.890625,3.390625 Q 11.75,3.75 11.34375,3.84375 L 10.9375,3.9375 10.875,4 10.8125,4.0625 10.9375,3.9375 Q 11.0625,3.8125 11.125,3.625 L 11.1875,3.4375 11.09375,3.71875 11,4 11.125,3.625"
       id="path66"
       inkscape:connector-curvature="0" />
    <path
       style="fill:#dcd9d3;fill-opacity:1"
       d="M 11.890625,3.390625 12.03125,3.03125 11.921875,3.046875 11.8125,3.0625 12.03125,3.03125 Q 12.25,3 12.5,3 H 12.75 12.375 12 12.5 q 0.5,0 1,0 H 14 13.625 13.25 13.5 q 0.25,0 0.46875,0.03125 L 14.1875,3.0625 14.078125,3.046875 13.96875,3.03125 14.109375,3.390625 14.25,3.75 14.15625,3.46875 14.0625,3.1875 14.125,3.375 q 0.0625,0.1875 0.1875,0.3125 l 0.125,0.125 L 14.375,3.75 14.3125,3.6875 14.03125,3.96875 Q 13.75,4.25 13.375,4.125 13,4 12.625,4.125 12.25,4.25 11.96875,3.96875 L 11.6875,3.6875 11.625,3.75 11.5625,3.8125 11.6875,3.6875 Q 11.8125,3.5625 11.875,3.375 L 11.9375,3.1875 11.84375,3.46875 11.75,3.75 11.890625,3.390625"
       id="path68"
       inkscape:connector-curvature="0" />
    <path
       style="fill:#9e9c98;fill-opacity:1"
       d="M 14.109375,3.390625 13.96875,3.03125 13.859375,3.015625 13.75,3 13.96875,3.03125 Q 14.1875,3.0625 14.375,3.125 L 14.5625,3.1875 14.28125,3.09375 14,3 14.375,3.125 q 0.375,0.125 0.5,0.5 L 15,4 14.90625,3.71875 14.8125,3.4375 14.875,3.625 q 0.0625,0.1875 0.1875,0.3125 l 0.125,0.125 L 15.125,4 15.0625,3.9375 14.65625,3.84375 Q 14.25,3.75 14.109375,3.390625"
       id="path70"
       inkscape:connector-curvature="0" />
    <path
       style="fill:#191918;fill-opacity:1"
       d="M 14.875,3.625 14.75,3.25 14.84375,3.53125 14.9375,3.8125 14.875,3.625 Q 14.8125,3.4375 14.6875,3.3125 L 14.5625,3.1875 14.625,3.25 14.6875,3.3125 14.96875,3.03125 Q 15.25,2.75 15.5,3 15.75,3.25 16,3.5 16.25,3.75 16.5,4 16.75,4.25 17,4.5 17.25,4.75 16.96875,5.03125 L 16.6875,5.3125 16.75,5.375 16.8125,5.4375 16.6875,5.3125 Q 16.5625,5.1875 16.375,5.125 L 16.1875,5.0625 16.46875,5.15625 16.75,5.25 16.375,5.125 Q 16,5 15.875,4.625 15.75,4.25 15.375,4.125 15,4 14.875,3.625"
       id="path72"
       inkscape:connector-curvature="0" />
    <path
       style="fill:#f4f1eb;fill-opacity:1"
       d="M 17.875,3.625 17.75,3.25 17.84375,3.53125 17.9375,3.8125 17.875,3.625 Q 17.8125,3.4375 17.71875,3.28125 L 17.625,3.125 17.671875,3.203125 17.71875,3.28125 18.015625,2.984375 18.3125,2.6875 18.25,2.625 18.1875,2.5625 l 0.125,0.125 q 0.125,0.125 0.3125,0.1875 L 18.8125,2.9375 18.53125,2.84375 18.25,2.75 18.625,2.875 Q 19,3 19.125,3.375 19.25,3.75 18.96875,4.03125 L 18.6875,4.3125 18.75,4.375 18.8125,4.4375 18.6875,4.3125 Q 18.5625,4.1875 18.375,4.125 L 18.1875,4.0625 18.46875,4.15625 18.75,4.25 18.375,4.125 18,4 17.875,3.625"
       id="path74"
       inkscape:connector-curvature="0" />
    <path
       style="fill:#94938f;fill-opacity:1"
       d="M 7.125,4.625 Q 7.25,4.25 7.625,4.125 L 8,4 V 4.5 5 4.625 4.25 4.5 Q 8,4.75 7.96875,4.96875 L 7.9375,5.1875 7.953125,5.078125 7.96875,4.96875 7.5,5 7.03125,5.03125 7.015625,5.140625 7,5.25 7.03125,5.03125 Q 7.0625,4.8125 7.125,4.625 L 7.1875,4.4375 7.09375,4.71875 7,5 7.125,4.625"
       id="path76"
       inkscape:connector-curvature="0" />
    <path
       style="fill:#e2dfda;fill-opacity:1"
       d="m 10.125,4.625 q 0.125,-0.375 0.5,-0.5 L 11,4 10.71875,4.09375 10.4375,4.1875 10.625,4.125 Q 10.8125,4.0625 10.9375,3.9375 L 11.0625,3.8125 11,3.875 10.9375,3.9375 10.96875,4.46875 Q 11,5 10.46875,4.96875 L 9.9375,4.9375 9.875,5 9.8125,5.0625 9.9375,4.9375 Q 10.0625,4.8125 10.125,4.625 L 10.1875,4.4375 10.09375,4.71875 10,5 10.125,4.625"
       id="path78"
       inkscape:connector-curvature="0" />
    <path
       style="fill:#f5f2ec;fill-opacity:0.34673366"
       d="M 10.96875,4.46875 10.9375,3.9375 11.34375,3.84375 11.75,3.75 11.46875,3.84375 11.1875,3.9375 11.375,3.875 Q 11.5625,3.8125 11.6875,3.6875 L 11.8125,3.5625 11.75,3.625 11.6875,3.6875 11.96875,3.96875 Q 12.25,4.25 12.625,4.125 13,4 13.375,4.125 13.75,4.25 14.03125,3.96875 L 14.3125,3.6875 14.25,3.625 14.1875,3.5625 l 0.125,0.125 q 0.125,0.125 0.3125,0.1875 L 14.8125,3.9375 14.53125,3.84375 14.25,3.75 14.65625,3.84375 15.0625,3.9375 15.03125,4.46875 Q 15,5 15.53125,4.96875 L 16.0625,4.9375 16.15625,5.34375 16.25,5.75 16.15625,5.46875 16.0625,5.1875 16.125,5.375 q 0.0625,0.1875 0.1875,0.3125 l 0.125,0.125 L 16.375,5.75 16.3125,5.6875 16.03125,5.96875 Q 15.75,6.25 15.875,6.625 L 16,7 H 15.5 Q 15,7 14.5,7 14,7 13.5,7 13,7 12.5,7 12,7 11.5,7 11,7 10.5,7 H 10 L 10.125,6.625 Q 10.25,6.25 9.96875,5.96875 L 9.6875,5.6875 9.625,5.75 9.5625,5.8125 9.6875,5.6875 Q 9.8125,5.5625 9.875,5.375 L 9.9375,5.1875 9.84375,5.46875 9.75,5.75 9.84375,5.34375 9.9375,4.9375 10.46875,4.96875 Q 11,5 10.96875,4.46875"
       id="path80"
       inkscape:connector-curvature="0" />
    <path
       style="fill:#e2dfda;fill-opacity:1"
       d="M 15.03125,4.46875 15.0625,3.9375 15,3.875 14.9375,3.8125 l 0.125,0.125 q 0.125,0.125 0.3125,0.1875 L 15.5625,4.1875 15.28125,4.09375 15,4 15.375,4.125 q 0.375,0.125 0.5,0.5 L 16,5 15.90625,4.71875 15.8125,4.4375 15.875,4.625 q 0.0625,0.1875 0.1875,0.3125 l 0.125,0.125 L 16.125,5 16.0625,4.9375 15.53125,4.96875 Q 15,5 15.03125,4.46875"
       id="path82"
       inkscape:connector-curvature="0" />
    <path
       style="fill:#94938f;fill-opacity:1"
       d="M 18,4.5 V 4 l 0.375,0.125 q 0.375,0.125 0.5,0.5 L 19,5 18.90625,4.71875 18.8125,4.4375 18.875,4.625 q 0.0625,0.1875 0.09375,0.40625 L 19,5.25 18.984375,5.140625 18.96875,5.03125 18.5,5 18.03125,4.96875 18.046875,5.078125 18.0625,5.1875 18.03125,4.96875 Q 18,4.75 18,4.5 V 4.25 4.625 5 4.5"
       id="path84"
       inkscape:connector-curvature="0" />
    <path
       style="fill:#343432;fill-opacity:1"
       d="M 7,5.5 V 5 5.375 5.75 5.5 Q 7,5.25 7.03125,5.03125 L 7.0625,4.8125 7.046875,4.921875 7.03125,5.03125 7.5,5 7.96875,4.96875 7.984375,4.859375 8,4.75 7.96875,4.96875 Q 7.9375,5.1875 7.875,5.375 L 7.8125,5.5625 7.90625,5.28125 8,5 7.875,5.375 Q 7.75,5.75 7.375,5.875 L 7,6 V 5.5"
       id="path86"
       inkscape:connector-curvature="0" />
    <path
       style="fill:#9e9c98;fill-opacity:1"
       d="M 9.125,5.625 Q 9.25,5.25 9.625,5.125 L 10,5 9.71875,5.09375 9.4375,5.1875 9.625,5.125 Q 9.8125,5.0625 9.9375,4.9375 L 10.0625,4.8125 10,4.875 9.9375,4.9375 9.84375,5.34375 Q 9.75,5.75 9.40625,5.875 L 9.0625,6 V 6.09375 6.1875 6 q 0,-0.1875 0.0625,-0.375 L 9.1875,5.4375 9.09375,5.71875 9,6 9.125,5.625"
       id="path88"
       inkscape:connector-curvature="0" />
    <path
       style="fill:#9e9c98;fill-opacity:1"
       d="M 16.15625,5.34375 16.0625,4.9375 16,4.875 15.9375,4.8125 l 0.125,0.125 q 0.125,0.125 0.3125,0.1875 L 16.5625,5.1875 16.28125,5.09375 16,5 16.375,5.125 q 0.375,0.125 0.5,0.5 L 17,6 16.90625,5.71875 16.8125,5.4375 16.875,5.625 Q 16.9375,5.8125 16.9375,6 V 6.1875 6.09375 6 L 16.59375,5.875 Q 16.25,5.75 16.15625,5.34375"
       id="path90"
       inkscape:connector-curvature="0" />
    <path
       style="fill:#343432;fill-opacity:1"
       d="M 18.125,5.375 18,5 18.09375,5.28125 18.1875,5.5625 18.125,5.375 Q 18.0625,5.1875 18.03125,4.96875 L 18,4.75 18.015625,4.859375 18.03125,4.96875 18.5,5 18.96875,5.03125 18.953125,4.921875 18.9375,4.8125 18.96875,5.03125 Q 19,5.25 19,5.5 V 5.75 5.375 5 5.5 6 L 18.625,5.875 q -0.375,-0.125 -0.5,-0.5"
       id="path92"
       inkscape:connector-curvature="0" />
    <path
       style="fill:#0b0b0b;fill-opacity:1"
       d="M 6.875,6.375 7,6 7.375,5.875 7.75,5.75 7.46875,5.84375 7.1875,5.9375 7.375,5.875 Q 7.5625,5.8125 7.6875,5.6875 L 7.8125,5.5625 7.75,5.625 7.6875,5.6875 7.96875,5.96875 Q 8.25,6.25 8.125,6.625 8,7 7.625,7.125 7.25,7.25 6.96875,6.96875 L 6.6875,6.6875 6.625,6.75 6.5625,6.8125 6.6875,6.6875 Q 6.8125,6.5625 6.875,6.375 L 6.9375,6.1875 6.84375,6.46875 6.75,6.75 6.875,6.375"
       id="path94"
       inkscape:connector-curvature="0" />
    <path
       style="fill:#dcd9d3;fill-opacity:1"
       d="M 9.125,6.375 9,6 9.09375,6.28125 9.1875,6.5625 9.125,6.375 Q 9.0625,6.1875 9.0625,6 V 5.8125 5.90625 6 L 9.40625,5.875 9.75,5.75 9.46875,5.84375 9.1875,5.9375 9.375,5.875 Q 9.5625,5.8125 9.6875,5.6875 L 9.8125,5.5625 9.75,5.625 9.6875,5.6875 9.96875,5.96875 Q 10.25,6.25 10.125,6.625 L 10,7 9.625,6.875 Q 9.25,6.75 9.125,6.375"
       id="path96"
       inkscape:connector-curvature="0" />
    <path
       style="fill:#dcd9d3;fill-opacity:1"
       d="M 15.875,6.625 Q 15.75,6.25 16.03125,5.96875 L 16.3125,5.6875 16.25,5.625 16.1875,5.5625 l 0.125,0.125 q 0.125,0.125 0.3125,0.1875 L 16.8125,5.9375 16.53125,5.84375 16.25,5.75 16.59375,5.875 16.9375,6 V 5.90625 5.8125 6 q 0,0.1875 -0.0625,0.375 L 16.8125,6.5625 16.90625,6.28125 17,6 16.875,6.375 q -0.125,0.375 -0.5,0.5 L 16,7 15.875,6.625"
       id="path98"
       inkscape:connector-curvature="0" />
    <path
       style="fill:#0b0b0b;fill-opacity:1"
       d="M 17.875,6.625 Q 17.75,6.25 18.03125,5.96875 L 18.3125,5.6875 18.25,5.625 18.1875,5.5625 l 0.125,0.125 q 0.125,0.125 0.3125,0.1875 L 18.8125,5.9375 18.53125,5.84375 18.25,5.75 18.625,5.875 19,6 19.125,6.375 19.25,6.75 19.15625,6.46875 19.0625,6.1875 19.125,6.375 q 0.0625,0.1875 0.1875,0.3125 l 0.125,0.125 L 19.375,6.75 19.3125,6.6875 19.03125,6.96875 Q 18.75,7.25 18.375,7.125 18,7 17.875,6.625"
       id="path100"
       inkscape:connector-curvature="0" />
    <path
       style="fill:#474644;fill-opacity:1"
       d="M 2.125,7.625 Q 2.25,7.25 2.625,7.125 L 3,7 2.71875,7.09375 2.4375,7.1875 2.625,7.125 Q 2.8125,7.0625 3.03125,7.03125 L 3.25,7 3.140625,7.015625 3.03125,7.03125 2.890625,7.390625 Q 2.75,7.75 2.390625,7.890625 L 2.03125,8.03125 2.015625,8.140625 2,8.25 2.03125,8.03125 Q 2.0625,7.8125 2.125,7.625 L 2.1875,7.4375 2.09375,7.71875 2,8 2.125,7.625"
       id="path102"
       inkscape:connector-curvature="0" />
    <path
       style="fill:#474644;fill-opacity:1"
       d="M 23.109375,7.390625 22.96875,7.03125 22.859375,7.015625 22.75,7 22.96875,7.03125 Q 23.1875,7.0625 23.375,7.125 L 23.5625,7.1875 23.28125,7.09375 23,7 23.375,7.125 q 0.375,0.125 0.5,0.5 L 24,8 23.90625,7.71875 23.8125,7.4375 23.875,7.625 q 0.0625,0.1875 0.09375,0.40625 L 24,8.25 23.984375,8.140625 23.96875,8.03125 23.609375,7.890625 q -0.359375,-0.140625 -0.5,-0.5"
       id="path104"
       inkscape:connector-curvature="0" />
    <path
       style="fill:#f5f2ec;fill-opacity:0.34673366"
       d="M 4.125,9.625 Q 4.25,9.25 4.625,9.125 5,9 5.5,9 6,9 6.375,9.125 6.75,9.25 6.875,9.625 7,10 7,10.5 q 0,0.5 0,1 0,0.5 0.125,0.875 0.125,0.375 0.5,0.5 L 8,13 8.375,12.875 Q 8.75,12.75 8.875,12.375 9,12 9,11.5 9,11 9,10.5 9,10 9.125,9.625 9.25,9.25 9.625,9.125 10,9 10.5,9 q 0.5,0 1,0 0.5,0 1,0 0.5,0 1,0 0.5,0 1,0 0.5,0 1,0 0.5,0 0.875,0.125 0.375,0.125 0.5,0.5 Q 17,10 17,10.5 q 0,0.5 0,1 0,0.5 0.125,0.875 0.125,0.375 0.5,0.5 L 18,13 18.375,12.875 q 0.375,-0.125 0.5,-0.5 Q 19,12 19,11.5 19,11 19,10.5 19,10 19.125,9.625 19.25,9.25 19.625,9.125 20,9 20.5,9 21,9 21.375,9.125 21.75,9.25 21.875,9.625 22,10 22,10.5 q 0,0.5 0,1 0,0.5 0,1 0,0.5 0,1 0,0.5 0,1 0,0.5 0,1 0,0.5 0,1 0,0.5 0,1 0,0.5 0,1 0,0.5 0,1 V 20 h -0.5 q -0.5,0 -0.875,0.125 -0.375,0.125 -0.5,0.5 L 20,21 H 19.5 Q 19,21 18.625,21.125 18.25,21.25 18,21.5 17.75,21.75 17.5,22 17.25,22.25 17,22.5 16.75,22.75 16.5,23 16.25,23.25 16.125,23.625 16,24 16,24.5 V 25 l -0.375,0.125 q -0.375,0.125 -0.5,0.5 Q 15,26 15,26.5 V 27 h -0.5 q -0.5,0 -1,0 -0.5,0 -1,0 -0.5,0 -1,0 -0.5,0 -1,0 -0.5,0 -1,0 Q 9,27 8.5,27 8,27 7.5,27 7,27 6.5,27 6,27 5.5,27 5,27 4.625,26.875 4.25,26.75 4.125,26.375 4,26 4,25.5 4,25 4,24.5 4,24 4,23.5 4,23 4,22.5 4,22 4,21.5 4,21 4,20.5 4,20 4,19.5 4,19 4,18.5 4,18 4,17.5 4,17 4,16.5 4,16 4,15.5 4,15 4,14.5 4,14 4,13.5 4,13 4,12.5 4,12 4,11.5 4,11 4,10.5 4,10 4.125,9.625"
       id="path106"
       inkscape:connector-curvature="0" />
    <path
       style="fill:#474644;fill-opacity:1"
       d="M 7.125,12.375 7,12 7.09375,12.28125 7.1875,12.5625 7.125,12.375 Q 7.0625,12.1875 7.03125,11.96875 L 7,11.75 7.015625,11.859375 7.03125,11.96875 7.515625,11.984375 8,12 V 12.5 13 L 7.625,12.875 q -0.375,-0.125 -0.5,-0.5"
       id="path108"
       inkscape:connector-curvature="0" />
    <path
       style="fill:#484745;fill-opacity:1"
       d="M 8,12.5 V 12 L 8.484375,11.984375 8.96875,11.96875 8.984375,11.859375 9,11.75 8.96875,11.96875 Q 8.9375,12.1875 8.875,12.375 L 8.8125,12.5625 8.90625,12.28125 9,12 8.875,12.375 q -0.125,0.375 -0.5,0.5 L 8,13 v -0.5"
       id="path110"
       inkscape:connector-curvature="0" />
    <path
       style="fill:#474644;fill-opacity:1"
       d="M 17.125,12.375 17,12 17.09375,12.28125 17.1875,12.5625 17.125,12.375 Q 17.0625,12.1875 17.03125,11.96875 L 17,11.75 l 0.01563,0.109375 0.01563,0.109375 0.484375,0.01563 L 18,12 v 0.5 0.5 l -0.375,-0.125 q -0.375,-0.125 -0.5,-0.5"
       id="path112"
       inkscape:connector-curvature="0" />
    <path
       style="fill:#484745;fill-opacity:1"
       d="M 18,12.5 V 12 L 18.484375,11.98437 18.96875,11.96874 18.98438,11.859365 19,11.75 18.96875,11.96875 Q 18.9375,12.1875 18.875,12.375 L 18.8125,12.5625 18.90625,12.28125 19,12 18.875,12.375 q -0.125,0.375 -0.5,0.5 L 18,13 v -0.5"
       id="path114"
       inkscape:connector-curvature="0" />
    <path
       style="fill:#f5e8c3;fill-opacity:1"
       d="m 20.125,20.625 q 0.125,-0.375 0.5,-0.5 L 21,20 20.71875,20.09375 20.4375,20.1875 20.625,20.125 q 0.1875,-0.0625 0.40625,-0.09375 L 21.25,20 21.140625,20.015625 21.03125,20.03125 21.015625,20.515625 21,21 H 20.5 20 l 0.125,-0.375 M 20.625,21 H 21 21.125 21.25 21 q -0.25,0 -0.5,0 h -0.25 0.375"
       id="path116"
       inkscape:connector-curvature="0" />
    <path
       style="fill:#f5da8e;fill-opacity:1"
       d="m 21.015625,20.515625 0.01563,-0.484375 -0.109375,0.01563 -0.109375,0.01563 0.21875,-0.03125 Q 21.25,20 21.5,20 H 21.75 21.375 21 21.5 22 l -0.01563,0.484375 -0.01563,0.484375 0.109375,-0.01563 0.109375,-0.01563 -0.21875,0.03125 Q 21.75,21 21.5,21 H 21.25 21.625 22 21.5 21 l 0.01563,-0.484375 M 20.875,21 H 21 21.375 21.75 21.5 q -0.25,0 -0.5,0 h -0.25 0.125"
       id="path118"
       inkscape:connector-curvature="0" />
    <path
       style="fill:#d0ac44;fill-opacity:1"
       d="M 21.984375,20.484375 22,20 h 0.5 0.5 l -0.125,0.375 q -0.125,0.375 -0.5,0.5 L 22,21 22.28125,20.90625 22.5625,20.8125 22.375,20.875 q -0.1875,0.0625 -0.40625,0.09375 L 21.75,21 l 0.109375,-0.01563 0.109375,-0.01563 0.01563,-0.484375"
       id="path120"
       inkscape:connector-curvature="0" />
    <path
       style="fill:#eac24d;fill-opacity:1"
       d="M 22.875,20.375 23,20 H 23.5 24 23.625 23.25 23.5 q 0.25,0 0.375,-0.125 L 24,19.75 23.9375,19.8125 23.875,19.875 23.9375,20.4375 24,21 23.625,21.125 Q 23.25,21.25 22.96875,20.96875 L 22.6875,20.6875 22.625,20.75 l -0.0625,0.0625 0.125,-0.125 q 0.125,-0.125 0.1875,-0.3125 L 22.9375,20.1875 22.84375,20.46875 22.75,20.75 22.875,20.375"
       id="path122"
       inkscape:connector-curvature="0" />
    <path
       style="fill:#f5cd58;fill-opacity:1"
       d="M 23.9375,20.4375 23.875,19.875 24.4375,19.9375 25,20 25.125,20.375 25.25,20.75 25.15625,20.46875 25.0625,20.1875 25.125,20.375 q 0.0625,0.1875 0.1875,0.3125 l 0.125,0.125 L 25.375,20.75 25.3125,20.6875 25.03125,20.96875 Q 24.75,21.25 24.375,21.125 L 24,21 23.9375,20.4375"
       id="path124"
       inkscape:connector-curvature="0" />
    <path
       style="fill:#f5d168;fill-opacity:1"
       d="M 25.125,20.375 25,20 h 0.5 0.5 l 0.01563,0.484375 0.01563,0.484375 0.109375,0.01563 L 26.25,21 26.03125,20.96875 Q 25.8125,20.9375 25.625,20.875 L 25.4375,20.8125 25.71875,20.90625 26,21 25.625,20.875 q -0.375,-0.125 -0.5,-0.5 m 1,-0.375 H 26 25.625 25.25 25.5 q 0.25,0 0.5,0 h 0.25 -0.125"
       id="path126"
       inkscape:connector-curvature="0" />
    <path
       style="fill:#f5da8e;fill-opacity:1"
       d="M 26.015625,20.484375 26,20 H 26.5 27 26.625 26.25 26.5 q 0.25,0 0.46875,0.03125 L 27.1875,20.0625 27.078125,20.04687 26.96875,20.03124 26.98438,20.515615 27,21 H 26.5 26 26.375 26.75 26.5 q -0.25,0 -0.46875,-0.03125 l -0.21875,-0.03125 0.109375,0.01563 0.109375,0.01563 -0.01563,-0.484375 M 26.625,21 H 27 27.125 27.25 27 q -0.25,0 -0.5,0 h -0.25 0.375 m -0.25,-1 H 26 25.875 25.75 26 q 0.25,0 0.5,0 h 0.25 -0.375"
       id="path128"
       inkscape:connector-curvature="0" />
    <path
       style="fill:#f5e8c3;fill-opacity:1"
       d="M 26.984375,20.515625 26.96875,20.03125 26.859375,20.015625 26.75,20 26.96875,20.03125 Q 27.1875,20.0625 27.375,20.125 L 27.5625,20.1875 27.28125,20.09375 27,20 l 0.375,0.125 q 0.375,0.125 0.5,0.5 L 28,21 H 27.5 27 L 26.98437,20.515625 M 26.875,21 H 27 27.375 27.75 27.5 q -0.25,0 -0.5,0 h -0.25 0.125"
       id="path130"
       inkscape:connector-curvature="0" />
    <path
       style="fill:#f5ecd5;fill-opacity:1"
       d="m 18,21.5 q 0.25,-0.25 0.625,-0.375 L 19,21 18.71875,21.09375 18.4375,21.1875 18.625,21.125 q 0.1875,-0.0625 0.40625,-0.09375 L 19.25,21 19.140625,21.015625 19.03125,21.03125 19.015625,21.515625 19,22 18.625,22.125 18.25,22.25 18.53125,22.15625 18.8125,22.0625 18.625,22.125 q -0.1875,0.0625 -0.34375,0.15625 L 18.125,22.375 18.203125,22.328125 18.28125,22.28125 18.015625,22.015625 17.75,21.75 18,21.5 M 17.9375,21.5625 17.75,21.75 17.6875,21.8125 17.625,21.875 17.75,21.75 Q 17.875,21.625 18,21.5 l 0.125,-0.125 -0.1875,0.1875 M 18.71875,22.09375 19,22 19.09375,21.96875 19.1875,21.9375 19,22 q -0.1875,0.0625 -0.375,0.125 l -0.1875,0.0625 0.28125,-0.09375"
       id="path132"
       inkscape:connector-curvature="0" />
    <path
       style="fill:#f5d477;fill-opacity:1"
       d="m 19.015625,21.515625 0.01563,-0.484375 -0.109375,0.01563 -0.109375,0.01563 0.21875,-0.03125 Q 19.25,21 19.5,21 H 19.75 19.375 19 19.5 20 l -0.125,0.375 q -0.125,0.375 -0.5,0.5 L 19,22 19.015625,21.515625 M 18.90625,22.03125 19,22 19.28125,21.90625 19.5625,21.8125 19.375,21.875 Q 19.1875,21.9375 19,22 l -0.1875,0.0625 0.09375,-0.03125"
       id="path134"
       inkscape:connector-curvature="0" />
    <path
       style="fill:#f5cb50;fill-opacity:1"
       d="M 19.875,21.375 20,21 h 0.5 q 0.5,0 1,0 0.5,0 0.875,-0.125 L 22.75,20.75 22.46875,20.84375 22.1875,20.9375 22.375,20.875 q 0.1875,-0.0625 0.3125,-0.1875 l 0.125,-0.125 -0.0625,0.0625 -0.0625,0.0625 0.28125,0.28125 Q 23.25,21.25 23.625,21.125 L 24,21 l 0.375,0.125 q 0.375,0.125 0.65625,-0.15625 L 25.3125,20.6875 25.25,20.625 l -0.0625,-0.0625 0.125,0.125 q 0.125,0.125 0.3125,0.1875 L 25.8125,20.9375 25.53125,20.84375 25.25,20.75 25.625,20.875 Q 26,21 26.5,21 q 0.5,0 1,0 H 28 l 0.125,0.375 q 0.125,0.375 0.5,0.5 L 29,22 v 0.5 q 0,0.5 0.375,0.625 0.375,0.125 0.5,0.5 Q 30,24 30.5,24 H 31 l 0.125,0.375 q 0.125,0.375 0.5,0.5 L 32,25 v 0.5 q 0,0.5 0,1 0,0.5 0.125,0.875 L 32.25,27.75 32.15625,27.46875 32.0625,27.1875 32.125,27.375 q 0.0625,0.1875 0.1875,0.3125 l 0.125,0.125 L 32.375,27.75 32.3125,27.6875 32.03125,27.96875 Q 31.75,28.25 31.875,28.625 q 0.125,0.375 0,0.75 -0.125,0.375 0.15625,0.65625 l 0.28125,0.28125 0.0625,-0.0625 0.0625,-0.0625 -0.125,0.125 q -0.125,0.125 -0.1875,0.3125 L 32.0625,30.8125 32.15625,30.53125 32.25,30.25 32.125,30.625 Q 32,31 32,31.5 q 0,0.5 0,1 V 33 l -0.375,0.125 q -0.375,0.125 -0.5,0.5 L 31,34 h -0.5 q -0.5,0 -0.625,0.375 -0.125,0.375 -0.5,0.5 Q 29,35 29,35.5 V 36 l -0.375,0.125 q -0.375,0.125 -0.5,0.5 L 28,37 h -0.5 q -0.5,0 -1,0 -0.5,0 -0.875,0.125 L 25.25,37.25 25.53125,37.15625 25.8125,37.0625 25.625,37.125 q -0.1875,0.0625 -0.3125,0.1875 l -0.125,0.125 0.0625,-0.0625 0.0625,-0.0625 -0.28125,-0.28125 Q 24.75,36.75 24.375,36.875 24,37 23.625,36.875 23.25,36.75 22.96875,37.03125 l -0.28125,0.28125 0.0625,0.0625 0.0625,0.0625 -0.125,-0.125 Q 22.5625,37.1875 22.375,37.125 L 22.1875,37.0625 22.46875,37.15625 22.75,37.25 22.375,37.125 Q 22,37 21.5,37 21,37 20.5,37 H 20 l -0.125,-0.375 q -0.125,-0.375 -0.5,-0.5 L 19,36 V 35.5 Q 19,35 18.625,34.875 18.25,34.75 18.125,34.375 18,34 17.5,34 H 17 l -0.125,-0.375 q -0.125,-0.375 -0.5,-0.5 L 16,33 v -0.5 q 0,-0.5 0,-1 0,-0.5 -0.125,-0.875 L 15.75,30.25 15.84375,30.53125 15.9375,30.8125 15.875,30.625 q -0.0625,-0.1875 -0.1875,-0.3125 l -0.125,-0.125 0.0625,0.0625 0.0625,0.0625 0.28125,-0.28125 Q 16.25,29.75 16.125,29.375 L 16,29 16.125,28.625 Q 16.25,28.25 15.96875,27.96875 L 15.6875,27.6875 15.625,27.75 l -0.0625,0.0625 0.125,-0.125 q 0.125,-0.125 0.1875,-0.3125 L 15.9375,27.1875 15.84375,27.46875 15.75,27.75 15.875,27.375 Q 16,27 16,26.5 16,26 16,25.5 V 25 l 0.375,-0.125 q 0.375,-0.125 0.5,-0.5 L 17,24 h 0.5 q 0.5,0 0.625,-0.375 0.125,-0.375 0.5,-0.5 Q 19,23 19,22.5 V 22 l 0.375,-0.125 q 0.375,-0.125 0.5,-0.5 m 5.0625,11.4375 -0.0625,0.0625 0.4375,-0.0625 Q 25.75,32.75 25.875,32.375 26,32 26,31.5 q 0,-0.5 0,-1 0,-0.5 0,-1 0,-0.5 0,-1 0,-0.5 0,-1 Q 26,27 25.875,26.625 25.75,26.25 25.3125,26.1875 L 24.875,26.125 24.9375,26.1875 25,26.25 24.875,26.125 Q 24.75,26 24.5,26 H 24.25 24.625 25 24.5 q -0.5,0 -1,0 -0.5,0 -0.875,0.125 -0.375,0.125 -0.5,0.5 -0.125,0.375 0,0.75 0.125,0.375 0.5,0.5 L 23,28 v 0.5 q 0,0.5 0,1 0,0.5 0,1 0,0.5 0,1 0,0.5 0.125,0.875 0.125,0.375 0.5625,0.4375 L 24.125,32.875 24.0625,32.8125 24,32.75 24.125,32.875 Q 24.25,33 24.5,33 H 24.75 24.375 24 24.5 25 24.625 24.25 24.5 q 0.25,0 0.375,-0.125 L 25,32.75 24.9375,32.8125"
       id="path136"
       inkscape:connector-curvature="0" />
    <path
       style="fill:#f5d477;fill-opacity:1"
       d="M 28.125,21.375 28,21 H 28.5 29 28.625 28.25 28.5 q 0.25,0 0.46875,0.03125 L 29.1875,21.0625 29.078125,21.04687 28.96875,21.03124 28.98438,21.515615 29,22 28.625,21.875 q -0.375,-0.125 -0.5,-0.5 M 28.71875,21.90625 29,22 29.09375,22.03125 29.1875,22.0625 29,22 q -0.1875,-0.0625 -0.375,-0.125 l -0.1875,-0.0625 0.28125,0.09375"
       id="path138"
       inkscape:connector-curvature="0" />
    <path
       style="fill:#f5ecd5;fill-opacity:1"
       d="M 28.984375,21.515625 28.96875,21.03125 28.859375,21.015625 28.75,21 28.96875,21.03125 Q 29.1875,21.0625 29.375,21.125 L 29.5625,21.1875 29.28125,21.09375 29,21 29.375,21.125 Q 29.75,21.25 30,21.5 l 0.25,0.25 -0.265625,0.265625 -0.265625,0.265625 0.07813,0.04687 L 29.875,22.375 29.71875,22.28125 Q 29.5625,22.1875 29.375,22.125 L 29.1875,22.0625 29.46875,22.15625 29.75,22.25 29.375,22.125 29,22 28.984375,21.515625 M 28.90625,21.96875 29,22 29.28125,22.09375 29.5625,22.1875 29.375,22.125 Q 29.1875,22.0625 29,22 l -0.1875,-0.0625 0.09375,0.03125 M 30.3125,21.8125 30.25,21.75 30.0625,21.5625 29.875,21.375 30,21.5 q 0.125,0.125 0.25,0.25 l 0.125,0.125 -0.0625,-0.0625"
       id="path140"
       inkscape:connector-curvature="0" />
    <path
       style="fill:#f5e9c7;fill-opacity:1"
       d="m 17,22.5 q 0.25,-0.25 0.5,-0.5 l 0.25,-0.25 0.265625,0.265625 0.265625,0.265625 0.07813,-0.04687 0.07813,-0.04687 -0.15625,0.09375 Q 18.125,22.375 18,22.5 L 17.875,22.625 18.0625,22.4375 18.25,22.25 18,22.5 Q 17.75,22.75 17.5,23 L 17.25,23.25 17.4375,23.0625 17.625,22.875 17.5,23 q -0.125,0.125 -0.21875,0.28125 L 17.1875,23.4375 17.23437,23.35937 17.28124,23.28124 17.015625,23.015625 16.75,22.75 17,22.5 M 16.9375,22.5625 16.75,22.75 16.6875,22.8125 16.625,22.875 16.75,22.75 Q 16.875,22.625 17,22.5 l 0.125,-0.125 -0.1875,0.1875 m 0.875,-0.875 L 17.75,21.75 17.5625,21.9375 17.375,22.125 17.5,22 q 0.125,-0.125 0.25,-0.25 l 0.125,-0.125 -0.0625,0.0625"
       id="path142"
       inkscape:connector-curvature="0" />
    <path
       style="fill:#f5ce5a;fill-opacity:1"
       d="m 18,22.5 q 0.25,-0.25 0.625,-0.375 L 19,22 v 0.5 q 0,0.5 -0.375,0.625 -0.375,0.125 -0.5,0.5 Q 18,24 17.5,24 H 17 l 0.125,-0.375 Q 17.25,23.25 17.5,23 17.75,22.75 18,22.5"
       id="path144"
       inkscape:connector-curvature="0"
       onclick="color: red" />
    <path
       style="fill:#f5ce5a;fill-opacity:1"
       d="M 29,22.5 V 22 l 0.375,0.125 Q 29.75,22.25 30,22.5 q 0.25,0.25 0.5,0.5 0.25,0.25 0.375,0.625 L 31,24 H 30.5 Q 30,24 29.875,23.625 29.75,23.25 29.375,23.125 29,23 29,22.5"
       id="path146"
       inkscape:connector-curvature="0" />
    <path
       style="fill:#f5e9c7;fill-opacity:1"
       d="M 30,22.5 29.75,22.25 29.9375,22.4375 30.125,22.625 30,22.5 q -0.125,-0.125 -0.28125,-0.21875 l -0.15625,-0.09375 0.07813,0.04687 0.07813,0.04687 0.265625,-0.265625 L 30.25,21.75 30.5,22 q 0.25,0.25 0.5,0.5 l 0.25,0.25 -0.265625,0.265625 -0.265625,0.265625 0.04687,0.07813 0.04687,0.07813 -0.09375,-0.15625 Q 30.625,23.125 30.5,23 L 30.375,22.875 30.5625,23.0625 30.75,23.25 30.5,23 Q 30.25,22.75 30,22.5 M 31.3125,22.8125 31.25,22.75 31.0625,22.5625 30.875,22.375 31,22.5 q 0.125,0.125 0.25,0.25 l 0.125,0.125 -0.0625,-0.0625 M 30.4375,21.9375 30.25,21.75 30.1875,21.6875 30.125,21.625 30.25,21.75 q 0.125,0.125 0.25,0.25 l 0.125,0.125 -0.1875,-0.1875"
       id="path148"
       inkscape:connector-curvature="0" />
    <path
       style="fill:#f5ecd5;fill-opacity:1"
       d="M 16.125,23.625 Q 16.25,23.25 16.5,23 l 0.25,-0.25 0.265625,0.265625 0.265625,0.265625 0.04687,-0.07813 L 17.375,23.125 17.28125,23.28125 Q 17.1875,23.4375 17.125,23.625 L 17.0625,23.8125 17.15625,23.53125 17.25,23.25 17.125,23.625 17,24 16.515625,24.015625 16.03125,24.03125 16.015625,24.140625 16,24.25 16.03125,24.03125 Q 16.0625,23.8125 16.125,23.625 L 16.1875,23.4375 16.09375,23.71875 16,24 16.125,23.625 M 16.96875,24.09375 17,24 17.09375,23.71875 17.1875,23.4375 17.125,23.625 Q 17.0625,23.8125 17,24 l -0.0625,0.1875 0.03125,-0.09375 M 16.8125,22.6875 16.75,22.75 16.5625,22.9375 16.375,23.125 16.5,23 q 0.125,-0.125 0.25,-0.25 l 0.125,-0.125 -0.0625,0.0625"
       id="path150"
       inkscape:connector-curvature="0" />
    <path
       style="fill:#f5ecd5;fill-opacity:1"
       d="M 30.875,23.625 30.75,23.25 30.84375,23.53125 30.9375,23.8125 30.875,23.625 Q 30.8125,23.4375 30.71875,23.28125 L 30.625,23.125 l 0.04687,0.07813 0.04687,0.07813 0.265625,-0.265625 L 31.25,22.75 31.5,23 q 0.25,0.25 0.375,0.625 L 32,24 31.90625,23.71875 31.8125,23.4375 31.875,23.625 q 0.0625,0.1875 0.09375,0.40625 L 32,24.25 31.984375,24.140625 31.96875,24.03125 31.484375,24.015625 31,24 30.875,23.625 M 30.90625,23.71875 31,24 31.03125,24.09375 31.0625,24.1875 31,24 q -0.0625,-0.1875 -0.125,-0.375 l -0.0625,-0.1875 0.09375,0.28125 M 31.4375,22.9375 31.25,22.75 31.1875,22.6875 31.125,22.625 31.25,22.75 q 0.125,0.125 0.25,0.25 l 0.125,0.125 -0.1875,-0.1875"
       id="path152"
       inkscape:connector-curvature="0" />
    <path
       style="fill:#f5d477;fill-opacity:1"
       d="M 16,24.5 V 24 24.375 24.75 24.5 q 0,-0.25 0.03125,-0.46875 L 16.0625,23.8125 16.04687,23.921875 16.03124,24.03125 16.515615,24.01562 17,24 16.875,24.375 q -0.125,0.375 -0.5,0.5 L 16,25 V 24.5 M 16.90625,24.28125 17,24 17.03125,23.90625 17.0625,23.8125 17,24 q -0.0625,0.1875 -0.125,0.375 l -0.0625,0.1875 0.09375,-0.28125"
       id="path154"
       inkscape:connector-curvature="0" />
    <path
       style="fill:#f5d477;fill-opacity:1"
       d="M 31.125,24.375 31,24 l 0.484375,0.01563 0.484375,0.01563 -0.01563,-0.109375 -0.01563,-0.109375 0.03125,0.21875 Q 32,24.25 32,24.5 V 24.75 24.375 24 24.5 25 l -0.375,-0.125 q -0.375,-0.125 -0.5,-0.5 M 30.96875,23.90625 31,24 31.09375,24.28125 31.1875,24.5625 31.125,24.375 Q 31.0625,24.1875 31,24 l -0.0625,-0.1875 0.03125,0.09375"
       id="path156"
       inkscape:connector-curvature="0" />
    <path
       style="fill:#f5e8c3;fill-opacity:1"
       d="m 15.125,25.625 q 0.125,-0.375 0.5,-0.5 L 16,25 V 25.5 26 L 15.515625,26.01563 15.03125,26.03126 15.01562,26.140635 15,26.25 15.03125,26.03125 Q 15.0625,25.8125 15.125,25.625 L 15.1875,25.4375 15.09375,25.71875 15,26 15.125,25.625 M 16,26.125 V 26 25.625 25.25 25.5 q 0,0.25 0,0.5 v 0.25 -0.125"
       id="path158"
       inkscape:connector-curvature="0" />
    <path
       style="fill:#f5e8c3;fill-opacity:1"
       d="M 32,25.5 V 25 H 32.5 33 V 25.5 26 H 32.5 32 v -0.5 m 0,0.125 V 26 26.125 26.25 26 q 0,-0.25 0,-0.5 v -0.25 0.375"
       id="path160"
       inkscape:connector-curvature="0" />
    <path
       style="fill:#f5da8e;fill-opacity:1"
       d="M 15,26.5 V 26 26.375 26.75 26.5 q 0,-0.25 0.03125,-0.46875 L 15.0625,25.8125 15.04687,25.921875 15.03124,26.03125 15.515615,26.01562 16,26 V 26.5 27 26.625 26.25 26.5 q 0,0.25 -0.03125,0.46875 L 15.9375,27.1875 15.95313,27.078125 15.96876,26.96875 15.484385,26.98438 15,27 v -0.5 m 1,-0.125 V 26 25.875 25.75 26 q 0,0.25 0,0.5 v 0.25 -0.375"
       id="path162"
       inkscape:connector-curvature="0" />
    <path
       style="fill:#8a722d;fill-opacity:1"
       d="m 22.125,26.625 q 0.125,-0.375 0.5,-0.5 L 23,26 22.71875,26.09375 22.4375,26.1875 22.625,26.125 q 0.1875,-0.0625 0.40625,-0.09375 L 23.25,26 23.140625,26.015625 23.03125,26.03125 23.015625,26.515625 23,27 H 22.53125 22.0625 V 27.09375 27.1875 27 q 0,-0.1875 0.0625,-0.375 L 22.1875,26.4375 22.09375,26.71875 22,27 22.125,26.625 M 23,27.125 V 27 26.625 26.25 26.5 q 0,0.25 0,0.5 v 0.25 -0.125"
       id="path164"
       inkscape:connector-curvature="0" />
    <path
       style="fill:#261f0c;fill-opacity:1"
       d="m 23.015625,26.515625 0.01563,-0.484375 -0.109375,0.01563 -0.109375,0.01563 0.21875,-0.03125 Q 23.25,26 23.5,26 H 23.75 23.375 23 23.5 24 V 26.5 27 H 23.5 23 l 0.01563,-0.484375 M 24.125,26 H 24 23.625 23.25 23.5 q 0.25,0 0.5,0 h 0.25 -0.125"
       id="path166"
       inkscape:connector-curvature="0" />
    <path
       style="fill:#000000;fill-opacity:1"
       d="M 24,26.5 V 26 h 0.5 q 0.5,0 0.5,0.5 0,0.5 0,1 0,0.5 0,1 0,0.5 0,1 0,0.5 0,1 0,0.5 0,1 0,0.5 0,1 0,0.5 -0.5,0.5 -0.5,0 -0.5,-0.5 0,-0.5 0,-1 0,-0.5 0,-1 0,-0.5 0,-1 0,-0.5 0,-1 V 28 28.375 28.75 28.5 q 0,-0.25 -0.125,-0.375 L 23.75,28 23.8125,28.0625 23.875,28.125 23.9375,27.5625 24,27 V 26.5 M 24.375,26 H 24 23.875 23.75 24 q 0.25,0 0.5,0 h 0.25 -0.375"
       id="path168"
       inkscape:connector-curvature="0" />
    <path
       style="fill:#d0ac44;fill-opacity:1"
       d="M 25,26.5 V 26 26.375 26.75 26.5 q 0,-0.25 -0.125,-0.375 L 24.75,26 l 0.0625,0.0625 0.0625,0.0625 0.4375,0.0625 Q 25.75,26.25 25.875,26.625 26,27 26,27.5 q 0,0.5 0,1 0,0.5 0,1 0,0.5 0,1 0,0.5 0,1 0,0.5 -0.125,0.875 -0.125,0.375 -0.5625,0.4375 L 24.875,32.875 24.8125,32.9375 24.75,33 24.875,32.875 Q 25,32.75 25,32.5 V 32.25 32.625 33 32.5 q 0,-0.5 0,-1 0,-0.5 0,-1 0,-0.5 0,-1 0,-0.5 0,-1 0,-0.5 0,-1 0,-0.5 0,-1"
       id="path170"
       inkscape:connector-curvature="0" />
    <path
       style="fill:#f5da8e;fill-opacity:1"
       d="M 32,26.5 V 26 h 0.5 0.5 v 0.5 0.5 l -0.484375,-0.01563 -0.484375,-0.01563 0.01563,0.109375 0.01563,0.109375 -0.03125,-0.21875 Q 32,26.75 32,26.5 V 26.25 26.625 27 26.5 m 0,-0.625 V 26 26.375 26.75 26.5 q 0,-0.25 0,-0.5 v -0.25 0.125"
       id="path172"
       inkscape:connector-curvature="0" />
    <path
       style="fill:#d0ac44;fill-opacity:1"
       d="M 15,27.5 V 27 L 15.484375,26.98437 15.96875,26.96874 15.98438,26.859365 16,26.75 15.96875,26.96875 Q 15.9375,27.1875 15.875,27.375 L 15.8125,27.5625 15.90625,27.28125 16,27 15.875,27.375 q -0.125,0.375 -0.5,0.5 L 15,28 v -0.5"
       id="path174"
       inkscape:connector-curvature="0" />
    <path
       style="fill:#61501f;fill-opacity:1"
       d="M 22.125,27.375 22,27 22.09375,27.28125 22.1875,27.5625 22.125,27.375 Q 22.0625,27.1875 22.0625,27 V 26.8125 26.90625 27 H 22.53125 23 v 0.5 0.5 l -0.375,-0.125 q -0.375,-0.125 -0.5,-0.5 m 0.875,0 V 27 26.875 26.75 27 q 0,0.25 0,0.5 v 0.25 -0.375"
       id="path176"
       inkscape:connector-curvature="0" />
    <path
       style="fill:#3f3414;fill-opacity:1"
       d="M 23,27.5 V 27 H 23.5 24 L 23.9375,27.5625 23.875,28.125 23.9375,28.1875 24,28.25 23.875,28.125 Q 23.75,28 23.5,28 H 23.25 23.625 24 23.5 23 v -0.5"
       id="path178"
       inkscape:connector-curvature="0" />
    <path
       style="fill:#f5d168;fill-opacity:1"
       d="M 32.125,27.375 32,27 32.09375,27.28125 32.1875,27.5625 32.125,27.375 Q 32.0625,27.1875 32.03125,26.96875 L 32,26.75 l 0.01563,0.109375 0.01563,0.109375 0.484375,0.01563 L 33,27 v 0.5 0.5 l -0.375,-0.125 q -0.375,-0.125 -0.5,-0.5"
       id="path180"
       inkscape:connector-curvature="0" />
    <path
       style="fill:#474644;fill-opacity:1"
       d="M 2.125,28.375 2,28 2.09375,28.28125 2.1875,28.5625 2.125,28.375 Q 2.0625,28.1875 2.03125,27.96875 L 2,27.75 2.015625,27.859375 2.03125,27.96875 2.390625,28.109375 q 0.359375,0.140625 0.5,0.5 L 3.03125,28.96875 3.140625,28.984375 3.25,29 3.03125,28.96875 Q 2.8125,28.9375 2.625,28.875 L 2.4375,28.8125 2.71875,28.90625 3,29 2.625,28.875 q -0.375,-0.125 -0.5,-0.5"
       id="path182"
       inkscape:connector-curvature="0" />
    <path
       style="fill:#eac24d;fill-opacity:1"
       d="M 15,28.5 V 28 L 15.375,27.875 15.75,27.75 15.46875,27.84375 15.1875,27.9375 15.375,27.875 q 0.1875,-0.0625 0.3125,-0.1875 l 0.125,-0.125 -0.0625,0.0625 -0.0625,0.0625 0.28125,0.28125 Q 16.25,28.25 16.125,28.625 L 16,29 15.4375,28.9375 14.875,28.875 14.8125,28.9375 14.75,29 14.875,28.875 Q 15,28.75 15,28.5 V 28.25 28.625 29 28.5"
       id="path184"
       inkscape:connector-curvature="0" />
    <path
       style="fill:#bd9c3d;fill-opacity:1"
       d="M 23,28.5 V 28 h 0.5 q 0.5,0 0.5,0.5 0,0.5 0,1 0,0.5 0,1 0,0.5 0,1 0,0.5 0,1 V 33 32.625 32.25 32.5 q 0,0.25 0.125,0.375 L 24.25,33 24.1875,32.9375 24.125,32.875 23.6875,32.8125 Q 23.25,32.75 23.125,32.375 23,32 23,31.5 q 0,-0.5 0,-1 0,-0.5 0,-1 0,-0.5 0,-1"
       id="path186"
       inkscape:connector-curvature="0" />
    <path
       style="fill:#f5cd58;fill-opacity:1"
       d="M 31.875,28.625 Q 31.75,28.25 32.03125,27.96875 L 32.3125,27.6875 32.25,27.625 l -0.0625,-0.0625 0.125,0.125 q 0.125,0.125 0.3125,0.1875 L 32.8125,27.9375 32.53125,27.84375 32.25,27.75 32.625,27.875 33,28 V 28.5 29 29.5 30 L 32.625,30.125 32.25,30.25 32.53125,30.15625 32.8125,30.0625 32.625,30.125 q -0.1875,0.0625 -0.3125,0.1875 l -0.125,0.125 0.0625,-0.0625 0.0625,-0.0625 -0.28125,-0.28125 Q 31.75,29.75 31.875,29.375 32,29 31.875,28.625"
       id="path188"
       inkscape:connector-curvature="0" />
    <path
       style="fill:#f5cd58;fill-opacity:1"
       d="M 14.9375,29.4375 14.875,28.875 15.4375,28.9375 16,29 l 0.125,0.375 q 0.125,0.375 -0.15625,0.65625 l -0.28125,0.28125 0.0625,0.0625 0.0625,0.0625 -0.125,-0.125 Q 15.5625,30.1875 15.375,30.125 L 15.1875,30.0625 15.46875,30.15625 15.75,30.25 15.375,30.125 15,30 14.9375,29.4375"
       id="path190"
       inkscape:connector-curvature="0" />
    <path
       style="fill:#f5d168;fill-opacity:1"
       d="M 15,30.5 V 30 l 0.375,0.125 q 0.375,0.125 0.5,0.5 L 16,31 15.90625,30.71875 15.8125,30.4375 15.875,30.625 q 0.0625,0.1875 0.09375,0.40625 L 16,31.25 15.984375,31.140625 15.96875,31.03125 15.484375,31.015625 15,31 v -0.5 m 0,0.125 V 31 31.125 31.25 31 q 0,-0.25 0,-0.5 v -0.25 0.375"
       id="path192"
       inkscape:connector-curvature="0" />
    <path
       style="fill:#f5d168;fill-opacity:1"
       d="m 32.125,30.625 q 0.125,-0.375 0.5,-0.5 L 33,30 V 30.5 31 L 32.515625,31.01563 32.03125,31.03126 32.01562,31.140635 32,31.25 32.03125,31.03125 Q 32.0625,30.8125 32.125,30.625 L 32.1875,30.4375 32.09375,30.71875 32,31 32.125,30.625"
       id="path194"
       inkscape:connector-curvature="0" />
    <path
       style="fill:#f5da8e;fill-opacity:1"
       d="M 15,31.5 V 31 l 0.484375,0.01563 0.484375,0.01563 -0.01563,-0.109375 -0.01563,-0.109375 0.03125,0.21875 Q 16,31.25 16,31.5 V 31.75 31.375 31 31.5 32 l -0.484375,-0.01563 -0.484375,-0.01563 0.01563,0.109375 0.01563,0.109375 -0.03125,-0.21875 Q 15,31.75 15,31.5 V 31.25 31.625 32 31.5 m 1,0.625 V 32 31.625 31.25 31.5 q 0,0.25 0,0.5 v 0.25 -0.125 m -1,-1.25 V 31 31.375 31.75 31.5 q 0,-0.25 0,-0.5 v -0.25 0.125"
       id="path196"
       inkscape:connector-curvature="0" />
    <path
       style="fill:#f5da8e;fill-opacity:1"
       d="M 32,31.5 V 31 31.375 31.75 31.5 q 0,-0.25 0.03125,-0.46875 L 32.0625,30.8125 32.04687,30.921875 32.03124,31.03125 32.515615,31.01562 33,31 V 31.5 32 H 32.5 32 v -0.5 m 0,0.125 V 32 32.125 32.25 32 q 0,-0.25 0,-0.5 v -0.25 0.375"
       id="path198"
       inkscape:connector-curvature="0" />
    <path
       style="fill:#f5e8c3;fill-opacity:1"
       d="M 15.125,32.375 15,32 15.09375,32.28125 15.1875,32.5625 15.125,32.375 Q 15.0625,32.1875 15.03125,31.96875 L 15,31.75 l 0.01563,0.109375 0.01563,0.109375 0.484375,0.01563 L 16,32 v 0.5 0.5 l -0.375,-0.125 q -0.375,-0.125 -0.5,-0.5 m 0.875,0 V 32 31.875 31.75 32 q 0,0.25 0,0.5 v 0.25 -0.375"
       id="path200"
       inkscape:connector-curvature="0" />
    <path
       style="fill:#f5e8c3;fill-opacity:1"
       d="M 32,32.5 V 32 H 32.5 33 V 32.5 33 H 32.5 32 v -0.5 m 0,-0.625 V 32 32.375 32.75 32.5 q 0,-0.25 0,-0.5 v -0.25 0.125"
       id="path202"
       inkscape:connector-curvature="0" />
    <path
       style="fill:#f5d477;fill-opacity:1"
       d="M 16,33.5 V 33 l 0.375,0.125 q 0.375,0.125 0.5,0.5 L 17,34 16.515625,33.984375 16.03125,33.96875 16.046875,34.078125 16.0625,34.1875 16.03125,33.96875 Q 16,33.75 16,33.5 V 33.25 33.625 34 33.5 M 17.03125,34.09375 17,34 16.90625,33.71875 16.8125,33.4375 16.875,33.625 Q 16.9375,33.8125 17,34 l 0.0625,0.1875 -0.03125,-0.09375"
       id="path204"
       inkscape:connector-curvature="0" />
    <path
       style="fill:#f5d477;fill-opacity:1"
       d="m 31.125,33.625 q 0.125,-0.375 0.5,-0.5 L 32,33 V 33.5 34 33.625 33.25 33.5 q 0,0.25 -0.03125,0.46875 L 31.9375,34.1875 31.95313,34.078125 31.96876,33.96875 31.484385,33.98438 31,34 31.125,33.625 M 31.09375,33.71875 31,34 30.96875,34.09375 30.9375,34.1875 31,34 q 0.0625,-0.1875 0.125,-0.375 l 0.0625,-0.1875 -0.09375,0.28125"
       id="path206"
       inkscape:connector-curvature="0" />
    <path
       style="fill:#f5ecd5;fill-opacity:1"
       d="M 16.125,34.375 16,34 16.09375,34.28125 16.1875,34.5625 16.125,34.375 Q 16.0625,34.1875 16.03125,33.96875 L 16,33.75 l 0.01563,0.109375 0.01563,0.109375 0.484375,0.01563 L 17,34 17.125,34.375 17.25,34.75 17.15625,34.46875 17.0625,34.1875 17.125,34.375 q 0.0625,0.1875 0.15625,0.34375 L 17.375,34.875 17.328125,34.796875 17.28125,34.71875 17.015625,34.984375 16.75,35.25 16.5,35 Q 16.25,34.75 16.125,34.375 M 16.5625,35.0625 16.75,35.25 16.8125,35.3125 16.875,35.375 16.75,35.25 Q 16.625,35.125 16.5,35 l -0.125,-0.125 0.1875,0.1875 M 17.09375,34.28125 17,34 16.96875,33.90625 16.9375,33.8125 17,34 q 0.0625,0.1875 0.125,0.375 l 0.0625,0.1875 -0.09375,-0.28125"
       id="path208"
       inkscape:connector-curvature="0" />
    <path
       style="fill:#f5ce5a;fill-opacity:1"
       d="M 17.125,34.375 17,34 h 0.5 q 0.5,0 0.625,0.375 0.125,0.375 0.5,0.5 Q 19,35 19,35.5 V 36 L 18.625,35.875 Q 18.25,35.75 18,35.5 17.75,35.25 17.5,35 17.25,34.75 17.125,34.375"
       id="path210"
       inkscape:connector-curvature="0" />
    <path
       style="fill:#f5ce5a;fill-opacity:1"
       d="M 29.875,34.375 Q 30,34 30.5,34 H 31 l -0.125,0.375 Q 30.75,34.75 30.5,35 30.25,35.25 30,35.5 29.75,35.75 29.375,35.875 L 29,36 v -0.5 q 0,-0.5 0.375,-0.625 0.375,-0.125 0.5,-0.5"
       id="path212"
       inkscape:connector-curvature="0" />
    <path
       style="fill:#f5ecd5;fill-opacity:1"
       d="M 30.875,34.375 31,34 31.484375,33.984375 31.96875,33.96875 31.984375,33.859375 32,33.75 31.96875,33.96875 Q 31.9375,34.1875 31.875,34.375 L 31.8125,34.5625 31.90625,34.28125 32,34 31.875,34.375 Q 31.75,34.75 31.5,35 L 31.25,35.25 30.984375,34.984375 30.71875,34.71875 30.671875,34.796875 30.625,34.875 30.71875,34.71875 Q 30.8125,34.5625 30.875,34.375 L 30.9375,34.1875 30.84375,34.46875 30.75,34.75 30.875,34.375 M 31.1875,35.3125 31.25,35.25 31.4375,35.0625 31.625,34.875 31.5,35 q -0.125,0.125 -0.25,0.25 l -0.125,0.125 0.0625,-0.0625 M 31.03125,33.90625 31,34 30.90625,34.28125 30.8125,34.5625 30.875,34.375 Q 30.9375,34.1875 31,34 l 0.0625,-0.1875 -0.03125,0.09375"
       id="path214"
       inkscape:connector-curvature="0" />
    <path
       style="fill:#f5e9c7;fill-opacity:1"
       d="m 17,35.5 -0.25,-0.25 0.265625,-0.265625 0.265625,-0.265625 -0.04687,-0.07813 -0.04687,-0.07813 0.09375,0.15625 Q 17.375,34.875 17.5,35 L 17.625,35.125 17.4375,34.9375 17.25,34.75 17.5,35 q 0.25,0.25 0.5,0.5 L 18.25,35.75 18.0625,35.5625 17.875,35.375 18,35.5 q 0.125,0.125 0.28125,0.21875 L 18.4375,35.8125 18.35937,35.76563 18.28124,35.71876 18.015615,35.984385 17.75,36.25 17.5,36 Q 17.25,35.75 17,35.5 M 17.5625,36.0625 17.75,36.25 17.8125,36.3125 17.875,36.375 17.75,36.25 Q 17.625,36.125 17.5,36 l -0.125,-0.125 0.1875,0.1875 M 16.6875,35.1875 16.75,35.25 16.9375,35.4375 17.125,35.625 17,35.5 q -0.125,-0.125 -0.25,-0.25 l -0.125,-0.125 0.0625,0.0625"
       id="path216"
       inkscape:connector-curvature="0" />
    <path
       style="fill:#f5e9c7;fill-opacity:1"
       d="M 30,35.5 Q 30.25,35.25 30.5,35 L 30.75,34.75 30.5625,34.9375 30.375,35.125 30.5,35 q 0.125,-0.125 0.21875,-0.28125 l 0.09375,-0.15625 -0.04687,0.07813 -0.04687,0.07813 0.265625,0.265625 L 31.25,35.25 31,35.5 q -0.25,0.25 -0.5,0.5 l -0.25,0.25 -0.265625,-0.265625 -0.265625,-0.265625 -0.07813,0.04687 -0.07813,0.04687 0.15625,-0.09375 Q 29.875,35.625 30,35.5 L 30.125,35.375 29.9375,35.5625 29.75,35.75 30,35.5 M 30.1875,36.3125 30.25,36.25 30.4375,36.0625 30.625,35.875 30.5,36 q -0.125,0.125 -0.25,0.25 l -0.125,0.125 0.0625,-0.0625 m 0.875,-0.875 L 31.25,35.25 31.3125,35.1875 31.375,35.125 31.25,35.25 Q 31.125,35.375 31,35.5 l -0.125,0.125 0.1875,-0.1875"
       id="path218"
       inkscape:connector-curvature="0" />
    <path
       style="fill:#f5ecd5;fill-opacity:1"
       d="M 18,36.5 17.75,36.25 18.015625,35.984375 18.28125,35.71875 18.203125,35.671875 18.125,35.625 18.28125,35.71875 Q 18.4375,35.8125 18.625,35.875 L 18.8125,35.9375 18.53125,35.84375 18.25,35.75 18.625,35.875 19,36 l 0.01563,0.484375 0.01563,0.484375 0.109375,0.01563 L 19.25,37 19.03125,36.96875 Q 18.8125,36.9375 18.625,36.875 L 18.4375,36.8125 18.71875,36.90625 19,37 18.625,36.875 Q 18.25,36.75 18,36.5 M 19.09375,36.03125 19,36 18.71875,35.90625 18.4375,35.8125 18.625,35.875 Q 18.8125,35.9375 19,36 l 0.1875,0.0625 -0.09375,-0.03125 M 17.6875,36.1875 17.75,36.25 17.9375,36.4375 18.125,36.625 18,36.5 q -0.125,-0.125 -0.25,-0.25 l -0.125,-0.125 0.0625,0.0625"
       id="path220"
       inkscape:connector-curvature="0" />
    <path
       style="fill:#f5d477;fill-opacity:1"
       d="M 19.015625,36.484375 19,36 l 0.375,0.125 q 0.375,0.125 0.5,0.5 L 20,37 H 19.5 19 19.375 19.75 19.5 q -0.25,0 -0.46875,-0.03125 l -0.21875,-0.03125 0.109375,0.01563 0.109375,0.01563 -0.01563,-0.484375 M 19.28125,36.09375 19,36 18.90625,35.96875 18.8125,35.9375 19,36 q 0.1875,0.0625 0.375,0.125 l 0.1875,0.0625 -0.28125,-0.09375"
       id="path222"
       inkscape:connector-curvature="0" />
    <path
       style="fill:#f5d477;fill-opacity:1"
       d="m 28.125,36.625 q 0.125,-0.375 0.5,-0.5 L 29,36 l -0.01563,0.484375 -0.01563,0.484375 0.109375,-0.01563 0.109375,-0.01563 -0.21875,0.03125 Q 28.75,37 28.5,37 H 28.25 28.625 29 28.5 28 l 0.125,-0.375 M 29.09375,35.96875 29,36 28.71875,36.09375 28.4375,36.1875 28.625,36.125 Q 28.8125,36.0625 29,36 l 0.1875,-0.0625 -0.09375,0.03125"
       id="path224"
       inkscape:connector-curvature="0" />
    <path
       style="fill:#f5ecd5;fill-opacity:1"
       d="M 28.984375,36.484375 29,36 29.375,35.875 29.75,35.75 29.46875,35.84375 29.1875,35.9375 29.375,35.875 q 0.1875,-0.0625 0.34375,-0.15625 L 29.875,35.625 29.79687,35.67187 29.71874,35.71874 29.984365,35.984365 30.25,36.25 30,36.5 q -0.25,0.25 -0.625,0.375 L 29,37 29.28125,36.90625 29.5625,36.8125 29.375,36.875 q -0.1875,0.0625 -0.40625,0.09375 L 28.75,37 28.859375,36.98437 28.96875,36.96874 28.98438,36.484365 M 30.0625,36.4375 30.25,36.25 30.3125,36.1875 30.375,36.125 30.25,36.25 Q 30.125,36.375 30,36.5 l -0.125,0.125 0.1875,-0.1875 M 29.28125,35.90625 29,36 28.90625,36.03125 28.8125,36.0625 29,36 q 0.1875,-0.0625 0.375,-0.125 l 0.1875,-0.0625 -0.28125,0.09375"
       id="path226"
       inkscape:connector-curvature="0" />
    <path
       style="fill:#f5e8c3;fill-opacity:1"
       d="M 20.125,37.375 20,37 h 0.5 0.5 l 0.01563,0.484375 0.01563,0.484375 0.109375,0.01563 L 21.25,38 21.03125,37.96875 Q 20.8125,37.9375 20.625,37.875 L 20.4375,37.8125 20.71875,37.90625 21,38 20.625,37.875 q -0.375,-0.125 -0.5,-0.5 m 1,-0.375 H 21 20.625 20.25 20.5 q 0.25,0 0.5,0 h 0.25 -0.125"
       id="path228"
       inkscape:connector-curvature="0" />
    <path
       style="fill:#f5da8e;fill-opacity:1"
       d="M 21.015625,37.484375 21,37 H 21.5 22 21.625 21.25 21.5 q 0.25,0 0.46875,0.03125 L 22.1875,37.0625 22.078125,37.04687 21.96875,37.03124 21.98438,37.515615 22,38 H 21.5 21 21.375 21.75 21.5 q -0.25,0 -0.46875,-0.03125 l -0.21875,-0.03125 0.109375,0.01563 0.109375,0.01563 -0.01563,-0.484375 M 21.625,38 H 22 22.125 22.25 22 q -0.25,0 -0.5,0 h -0.25 0.375 m -0.25,-1 H 21 20.875 20.75 21 q 0.25,0 0.5,0 h 0.25 -0.375"
       id="path230"
       inkscape:connector-curvature="0" />
    <path
       style="fill:#f5d168;fill-opacity:1"
       d="M 21.984375,37.515625 21.96875,37.03125 21.859375,37.015625 21.75,37 21.96875,37.03125 Q 22.1875,37.0625 22.375,37.125 L 22.5625,37.1875 22.28125,37.09375 22,37 l 0.375,0.125 q 0.375,0.125 0.5,0.5 L 23,38 H 22.5 22 L 21.98437,37.515625 M 21.875,38 H 22 22.375 22.75 22.5 q -0.25,0 -0.5,0 h -0.25 0.125"
       id="path232"
       inkscape:connector-curvature="0" />
    <path
       style="fill:#f5cd58;fill-opacity:1"
       d="M 22.875,37.625 22.75,37.25 22.84375,37.53125 22.9375,37.8125 22.875,37.625 q -0.0625,-0.1875 -0.1875,-0.3125 l -0.125,-0.125 0.0625,0.0625 0.0625,0.0625 0.28125,-0.28125 Q 23.25,36.75 23.625,36.875 q 0.375,0.125 0.75,0 0.375,-0.125 0.65625,0.15625 l 0.28125,0.28125 0.0625,-0.0625 0.0625,-0.0625 -0.125,0.125 q -0.125,0.125 -0.1875,0.3125 L 25.0625,37.8125 25.15625,37.53125 25.25,37.25 25.125,37.625 25,38 h -0.5 q -0.5,0 -1,0 H 23 l -0.125,-0.375"
       id="path234"
       inkscape:connector-curvature="0" />
    <path
       style="fill:#f5d168;fill-opacity:1"
       d="m 25.125,37.625 q 0.125,-0.375 0.5,-0.5 L 26,37 25.71875,37.09375 25.4375,37.1875 25.625,37.125 q 0.1875,-0.0625 0.40625,-0.09375 L 26.25,37 26.140625,37.015625 26.03125,37.03125 26.015625,37.515625 26,38 H 25.5 25 l 0.125,-0.375 M 25.625,38 H 26 26.125 26.25 26 q -0.25,0 -0.5,0 h -0.25 0.375"
       id="path236"
       inkscape:connector-curvature="0" />
    <path
       style="fill:#f5da8e;fill-opacity:1"
       d="m 26.015625,37.515625 0.01563,-0.484375 -0.109375,0.01563 -0.109375,0.01563 0.21875,-0.03125 Q 26.25,37 26.5,37 H 26.75 26.375 26 26.5 27 l -0.01563,0.484375 -0.01563,0.484375 0.109375,-0.01563 0.109375,-0.01563 -0.21875,0.03125 Q 26.75,38 26.5,38 H 26.25 26.625 27 26.5 26 l 0.01563,-0.484375 M 25.875,38 H 26 26.375 26.75 26.5 q -0.25,0 -0.5,0 h -0.25 0.125 m 1.25,-1 H 27 26.625 26.25 26.5 q 0.25,0 0.5,0 h 0.25 -0.125"
       id="path238"
       inkscape:connector-curvature="0" />
    <path
       style="fill:#f5e8c3;fill-opacity:1"
       d="M 26.984375,37.484375 27,37 h 0.5 0.5 l -0.125,0.375 q -0.125,0.375 -0.5,0.5 L 27,38 27.28125,37.90625 27.5625,37.8125 27.375,37.875 q -0.1875,0.0625 -0.40625,0.09375 L 26.75,38 26.859375,37.98437 26.96875,37.96874 26.98438,37.484365 M 27.375,37 H 27 26.875 26.75 27 q 0.25,0 0.5,0 h 0.25 -0.375"
       id="path240"
       inkscape:connector-curvature="0" />
  </g>
</svg>
